<?xml version="1.0" encoding="iso-8859-1"?>
<!-- Uploaded to: SVG Repo, www.svgrepo.com, Generator: SVG Repo Mixer Tools -->
<svg fill="#000000" height="800px" width="800px" version="1.1" id="Layer_1" xmlns="http://www.w3.org/2000/svg" xmlns:xlink="http://www.w3.org/1999/xlink" 
	 viewBox="0 0 218.9 218.9" xml:space="preserve">
<g>
	<g>
		<g>
			<path d="M27.49,156.408c-2.572,0-2.576,4,0,4C30.062,160.408,30.07,156.408,27.49,156.408z"/>
			<path d="M38.734,169.128c-2.576,0-2.58,4,0,4C41.306,173.128,41.314,169.128,38.734,169.128z"/>
			<path d="M25.422,136.296c-2.576,0-2.58,4,0,4C27.994,140.296,28.002,136.296,25.422,136.296z"/>
			<path d="M39.03,113.672c2.572,0,2.58-4,0-4C36.454,109.672,36.45,113.672,39.03,113.672z"/>
			<path d="M39.39,131.852c-0.1,0.1-0.196,0.196-0.296,0.296c-1.824,1.824,1.004,4.652,2.828,2.828c0.1-0.1,0.196-0.196,0.296-0.296
				C44.038,132.856,41.214,130.028,39.39,131.852z"/>
			<path d="M45.534,58.5c-2.572,0-2.576,4,0,4C48.106,62.5,48.114,58.5,45.534,58.5z"/>
			<path d="M41.986,72.7c-2.572,0-2.58,4,0,4C44.558,76.7,44.566,72.7,41.986,72.7z"/>
			<path d="M218.626,148.724c-1.332-6.36-5.772-12.188-13.196-17.324c-11.972-8.292-27.188-12.424-42.776-11.716
				c-14.28,0.668-28.884,5.372-42.248,13.6c-1.912,1.178-3.798,2.426-5.679,3.682c-0.084-1.222-0.189-2.457-0.325-3.71
				c-1.64-15.28-6.752-30.2-15.204-44.348c-6.02-10.08-11.428-20.86-16.084-32.052c-1.32-3.168-2.96-6.436-5.016-9.992
				c-2.716-4.692-6.76-7.896-13.124-10.388c-1.268-0.493-3.747-0.856-6.37-0.962c-0.23-9.127,1.27-17.523,7.958-24.918
				c0.016-0.018,0.026-0.037,0.041-0.055c1.634-1.153,2.924-2.566,3.487-4.305c0.564-1.74-2.172-2.484-2.732-0.752
				c-0.684,2.112-3.848,3.472-5.74,4.352c-1.869,0.871-3.829,1.467-5.836,1.904l-0.476-0.06c-0.78-0.1-19.116-2.304-32.808,6.196
				C8.722,26.432,5.286,42.308,5.15,42.98l-0.312,1.5l1.52,0.192c0.276,0.036,2.716,0.332,6.36,0.332
				c6.732,0,17.572-1.008,26.448-6.528c11.795-7.322,16.007-20.007,17.061-23.929c1.441-0.298,3.111-0.72,4.796-1.295
				c-4.305,6.794-5.44,14.187-5.246,22.255c-1.294,0.049-2.531,0.171-3.575,0.389c-9.332,2.86-12.896,5.852-17.336,14.544
				c-1.304,2.56-2.416,4.952-3.4,7.324c-4.892,11.844-9.636,21.328-14.944,29.832c-4.384,7.04-8.088,15.052-11.012,23.82
				c-5.848,17.544-7.028,33.568-3.6,48.984c5.916,26.62,25.336,44.28,50.68,46.088c1.78,0.128,3.532,0.192,5.248,0.192
				c11.929,0,22.305-3.133,31.11-9.219c6.055,1.96,12.761,3.231,19.418,4.343c2.744,0.46,6.764,1.86,11.416,3.476
				c8.24,2.868,19.528,6.792,32.248,8.456c3.38,0.444,6.652,0.664,9.816,0.664c13.488,0,25-4.016,34.324-11.984
				c20.237-17.318,22.33-46.157,22.366-46.839C218.979,152.921,219.012,150.566,218.626,148.724z M53.157,14.915
				c-0.836,2.685-2.68,7.55-6.171,12.355v-8.507L53.157,14.915z M23.99,20.284c9.738-6.042,22.413-6.263,28.038-6.004L8.523,41.405
				C9.934,36.914,14.133,26.409,23.99,20.284z M23.324,33.515l-0.484,7.804c-1.778,0.296-3.491,0.486-5.109,0.613l0.487-5.234
				L23.324,33.515z M24.508,32.777l6.198-3.864v10.423c-2.242,0.78-4.507,1.354-6.714,1.769L24.508,32.777z M9.597,42.074l7.41-4.62
				l-0.425,4.562C13.764,42.188,11.34,42.155,9.597,42.074z M31.838,38.927V28.207l6.691-4.172l-0.615,11.879
				c-0.082,0.052-0.157,0.11-0.24,0.162C35.814,37.23,33.843,38.161,31.838,38.927z M39.093,35.12l0.612-11.818l6.149-3.834v9.278
				C44.017,31.028,41.783,33.23,39.093,35.12z M204.306,175.236c-7.4,8.44-21.152,18.136-44.432,16.356
				c-5.012-0.384-11.156-2.128-17.092-3.812c-3.928-1.112-7.64-2.168-10.996-2.832c-7.9-1.564-15.04-1.928-21.944-2.284
				c-5.52-0.284-11.232-0.576-17.428-1.472c-5.564-0.804-11.324-2-15.74-5.26c-3.884-2.86-6.98-8.32-5.396-13.228
				c0.373-1.155,0.962-2.162,1.67-3.05c-0.951,4.901,2.497,9.749,6.39,12.35c4.556,3.048,10.232,4.2,15.68,4.988
				c5.84,0.848,11.172,1.176,16.328,1.492c6.588,0.404,12.812,0.784,19.968,2.16c3.012,0.58,6.408,1.492,10,2.46
				c5.62,1.512,11.432,3.072,16.308,3.48c1.944,0.164,3.86,0.244,5.756,0.244c17.184,0,32.032-6.62,41.324-18.608
				c6.141-7.921,8.963-17.229,7.605-24.492c1.181,1.887,1.983,3.825,2.399,5.808C215.65,154.04,212.998,165.324,204.306,175.236z
				 M210.598,141.648c2.496,7.176-0.172,17.336-6.796,25.884c-10.072,12.996-26.884,19.512-46.088,17.928
				c-4.772-0.4-10.532-1.948-16.104-3.448c-3.616-0.972-7.028-1.892-10.084-2.476c-7.224-1.388-13.484-1.772-20.108-2.18
				c-5.136-0.316-10.444-0.644-16.236-1.48c-5.32-0.772-10.844-1.888-15.212-4.808c-3.984-2.664-7.2-7.72-5.64-12.232
				c0.125-0.362,0.281-0.703,0.451-1.034c2.333-1.919,5.114-2.978,6.621-3.446c2.472-0.768,5.016-1.212,7.712-1.68
				c2.44-0.424,4.968-0.868,7.444-1.572c7.284-2.08,13.608-6.296,19.724-10.372c2.064-1.376,4.128-2.752,6.22-4.044
				c12.788-7.872,26.736-12.372,40.336-13.012c1.116-0.056,2.236-0.08,3.348-0.08c13.552,0,26.568,3.888,36.964,11.088
				c2.952,2.042,5.358,4.18,7.219,6.398C210.443,141.271,210.531,141.456,210.598,141.648z M55.97,39.544
				c0.06,0.864,0.128,1.734,0.208,2.612c0.164,1.8,3,1.816,2.836-0.004c-0.081-0.886-0.149-1.764-0.211-2.638
				c0.774,0.04,1.52,0.103,2.195,0.184c3.576,0.53,5.884,1.901,5.884,3.162c0,1.604-3.72,3.392-9.06,3.392
				c-5.34,0-9.06-1.788-9.06-3.392C48.762,41.449,51.642,39.897,55.97,39.544z M52.878,202.5
				c-23.504-1.68-41.536-18.144-47.056-42.968c-3.264-14.688-2.12-30.012,3.492-46.848c2.82-8.468,6.392-16.196,10.608-22.968
				c5.424-8.7,10.272-18.368,15.248-30.42c0.94-2.272,2.008-4.572,3.264-7.032c2.957-5.788,5.186-8.497,9.508-10.542
				c-0.197,0.362-0.312,0.741-0.312,1.138c0,2.58,4.384,4.524,10.192,4.524c5.808,0,10.188-1.948,10.192-4.524
				c0-0.18-0.026-0.357-0.068-0.53c2.993,1.755,5.146,3.856,6.696,6.539c1.968,3.4,3.532,6.516,4.78,9.524
				C84.15,69.76,89.65,80.716,95.762,90.96c8.152,13.648,13.084,28.024,14.664,42.724c0.214,1.994,0.336,3.931,0.422,5.846
				c-4.98,3.254-9.881,6.155-15.386,7.726c-2.272,0.648-4.584,1.052-7.032,1.48c-2.7,0.468-5.492,0.956-8.212,1.8
				c-6.512,2.024-11.16,6.012-12.744,10.94c-0.385,1.192-0.57,2.384-0.61,3.562l-0.078-0.014
				c-1.436,8.136-0.216,15.016,3.624,20.444c3.275,4.634,8.128,7.868,13.831,10.256C75.378,201.045,64.913,203.353,52.878,202.5z
				 M193.57,199.376c-10.604,9.072-24.38,12.576-41.02,10.396c-12.308-1.612-22.92-5.304-31.448-8.268
				c-5.024-1.748-8.996-3.128-12.08-3.644c-14.316-2.392-28.84-5.496-35.348-14.704c-1.618-2.288-2.667-4.853-3.158-7.735
				c1.128,1.459,2.426,2.733,3.782,3.731c5.128,3.784,11.46,5.12,17.544,6c6.376,0.924,12.18,1.22,17.792,1.508
				c7.076,0.364,13.76,0.708,21.38,2.216c3.196,0.632,6.828,1.664,10.676,2.756c6.132,1.74,12.468,3.54,17.884,3.952
				c2.004,0.152,3.94,0.224,5.812,0.224c21.48,0,34.576-9.54,41.936-17.924c1.012-1.153,1.943-2.333,2.817-3.524
				C206.987,182.818,201.809,192.328,193.57,199.376z"/>
			<path d="M181.602,136.16c-6.192-2.872-14.164-4.036-22.428-3.284c-17.296,1.58-30.6,11.236-29.664,21.524
				c0.856,9.324,13.112,16.016,28.272,16.016c1.568,0,3.176-0.072,4.796-0.216c8.272-0.756,15.896-3.344,21.464-7.292
				c5.756-4.076,8.664-9.132,8.196-14.236C191.774,143.572,187.998,139.128,181.602,136.16z M181.601,138.686
				c1.983,1.016,3.642,2.189,4.95,3.48l-7.37,21.034c-1.649,0.868-3.415,1.639-5.293,2.293L181.601,138.686z M172.59,165.912
				c-1.931,0.605-3.955,1.092-6.049,1.457l9.025-30.978c1.769,0.484,3.45,1.078,5.002,1.794L172.59,165.912z M167.706,135.065
				l-9.759,33.087c-2.098,0.01-4.133-0.114-6.082-0.353l10.711-32.847c0.499-0.015,0.999-0.035,1.495-0.035
				C165.301,134.916,166.511,134.974,167.706,135.065z M159.374,135.132c0.669-0.061,1.333-0.102,1.996-0.137l-10.646,32.649
				c-1.562-0.233-3.06-0.545-4.485-0.927l9.632-31.14C157.017,135.394,158.183,135.241,159.374,135.132z M145.146,166.406
				c-1.731-0.523-3.342-1.151-4.799-1.879l8.723-27.356c1.761-0.553,3.615-1.016,5.545-1.376L145.146,166.406z M140.867,140.784
				l-6.946,18.708c-1.225-1.609-1.98-3.388-2.155-5.299C131.311,149.202,134.883,144.366,140.867,140.784z M134.758,160.487
				l7.636-20.566c1.639-0.866,3.432-1.641,5.346-2.31l-8.411,26.377C137.514,162.974,135.972,161.797,134.758,160.487z
				 M162.374,167.94c-1.093,0.099-2.173,0.159-3.24,0.189l9.725-32.97c1.942,0.196,3.818,0.516,5.61,0.948l-9.172,31.483
				C164.334,167.733,163.359,167.85,162.374,167.94z M182.73,161.056c-0.657,0.466-1.346,0.912-2.063,1.337l6.756-19.282
				c1.487,1.76,2.365,3.708,2.554,5.77C190.37,153.14,187.798,157.468,182.73,161.056z"/>
			<path d="M153.638,197.46c-2.576,0-2.58,4,0,4C156.21,201.46,156.218,197.46,153.638,197.46z"/>
			<path d="M171.638,203.792c-2.576,0-2.58,4,0,4C174.21,207.792,174.218,203.792,171.638,203.792z"/>
			<path d="M181.638,196.792c-2.576,0-2.58,4,0,4C184.21,200.792,184.218,196.792,181.638,196.792z"/>
		</g>
	</g>
</g>
</svg>