<?xml version="1.0" encoding="iso-8859-1"?>
<!-- Uploaded to: SVG Repo, www.svgrepo.com, Generator: SVG Repo Mixer Tools -->
<svg fill="#000000" version="1.1" id="Layer_1" xmlns="http://www.w3.org/2000/svg" xmlns:xlink="http://www.w3.org/1999/xlink" 
	 viewBox="0 0 279.864 279.864" xml:space="preserve">
<g>
	<g>
		<g>
			<path d="M232.014,234.88c-0.148-11.408-0.296-22.816-0.308-34.224v-0.004c-0.008-4.488,0.064-8.98,0.128-13.468
				c0.096-6.384,0.2-12.984,0.076-19.488c-0.176-8.896-0.936-20.544-5.32-31.788c-2.968-7.624-6.272-15.316-9.188-22.096
				c-1.888-4.404-2.7-8.456-2.564-12.764c0.14-4.528-0.748-7.648-2.796-9.816c-0.085-0.09-0.182-0.166-0.271-0.252
				c1.822-1.106,3.047-3.103,3.047-5.384v-1.132c0-1.67-0.659-3.187-1.724-4.316c1.066-1.129,1.724-2.646,1.724-4.316V74.7
				c0-3.472-2.828-6.3-6.3-6.3h-12.326l4.618-66.14l0.096-1.416L188.766,0l-4.778,68.4h-39.17c-3.472,0-6.3,2.828-6.3,6.3v1.132
				c0,1.67,0.659,3.187,1.724,4.316c-1.066,1.129-1.724,2.646-1.724,4.316v1.132c0,2.282,1.226,4.28,3.049,5.385
				c-0.088,0.085-0.185,0.161-0.269,0.251c-2.052,2.164-2.94,5.284-2.8,9.816c0.136,4.316-0.676,8.372-2.564,12.76
				c-3.076,7.164-6.248,14.572-9.188,22.1c-1.116,2.865-1.979,5.753-2.672,8.615l-0.144-0.435l-1.7-1.668l-0.524-0.132
				c-2.092-0.532-4.872-0.348-6.18,3.572c-0.356,1.072-0.92,2.128-1.508,3.244c-0.252,0.468-0.5,0.94-0.74,1.416
				c-2.472,3.112-12.364,16.94-15.988,24.192c-0.964,1.84-1.304,3.316-1.628,4.74c-0.148,0.64-0.296,1.292-0.584,2.28l-0.212,1.316
				l-5.356-0.432l-8.74,0.728c-2.284,0.472-13.76,3.9-16.368,4.9c-0.716,0.276-7.016,2.332-9.5,3.064l-1.372-0.028
				c-1.744,0.032-3.512,0.236-4.668,1.508c-1.092,1.196-1.112,2.788-1.016,4.036l0.052,0.652l1.332,1.564l2.64,1.768l1.06,1.092
				l6.716,10.132l2.8,4.088l2.052,2.488l7.728,7.636l3.684,2.764l3.268,1.932c-0.104,0.204-0.192,0.436-0.248,0.688l-2.624,7.468
				l-1.556,8.312l-0.392,6.588l0.776,13.832c0.04,2.124-0.012,3.864-0.964,5.308l-0.252,0.384l-0.34,2.6l3.224,3.744l3.336-0.316
				l0.508-0.512c1.924-1.936,4.5-3.152,8.416-3.96l2.26-0.552c2.28-0.588,14.824-4.992,17.812-6.34l3.736-2.112l7.188-5.472
				l3.984,3.428l8.764,5.164l3.876,1.664c0.624,0.364,4.388,1.672,5.388,1.976c0.404,0.116,3.832,0.98,5.112,1.292
				c0.424,0.108,3.664,0.912,4.676,1.152l4.82,1.732l4.144,2.752l2.752-0.004l2.736-2.808l0.039-1.687
				c1.779,0.024,3.559,0.047,5.349,0.047h9.924c5.624,0,11.188-0.036,16.78-0.172c5.516-0.14,9.828-0.74,13.572-1.896
				c8.468-2.608,14.32-8.912,17.388-18.724c0.644-2.064,1.044-4.176,1.424-6.224c0.248-1.292,0.488-2.592,0.796-3.88
				c0.244-1.016,0.48-5.172,0.472-5.652L232.014,234.88z M213.722,115.384c2.904,6.756,6.192,14.416,9.136,21.976
				c4.156,10.656,4.88,21.852,5.048,30.416c0.124,6.432,0.024,13-0.076,19.348c-0.068,4.512-0.136,9.024-0.128,13.536
				c0.012,11.424,0.16,22.852,0.308,34.272l0.052,3.88c0,0.121-0.012,0.394-0.032,0.744h-43.798l2.614-37.438
				c0.828-0.971,1.752-1.818,2.888-2.446c1.364-0.76,2.188-1.772,2.44-3.016c0.272-1.332-0.168-2.756-1.312-4.224
				c0,0-0.568-0.764-1.264-0.864c-0.261-0.037-1.079-0.092-2.003-0.147l6.94-99.376c4.767-0.08,7.879-0.134,7.839-0.134
				c3.308,0.08,5.52,0.752,6.756,2.068c1.252,1.324,1.808,3.592,1.704,6.94C210.682,105.764,211.626,110.496,213.722,115.384z
				 M181.113,243.524l-0.472,6.757l-6.612,1.38l2.219-31.769l6.609-1.331l-1.467,20.995h-5.432v3.968H181.113z M183.02,216.227
				l-6.609,1.329l0.036-0.509c0.982-1.284,1.934-2.58,2.868-3.855c0.736-1.008,1.472-2.012,2.324-3.16l2.046-3.311L183.02,216.227z
				 M173.338,261.548l6.612-1.38l-0.408,5.837l-6.484-0.452L173.338,261.548z M180.113,257.828l-6.612,1.382l0.364-5.215
				l6.612-1.379L180.113,257.828z M191.4,96.235l-6.598,1.256l0.364-5.211l0.459-0.087c2.147-0.035,4.191-0.069,6.064-0.1
				L191.4,96.235z M184.639,99.824l6.598-1.257l-2.088,29.902l-6.613,1.468L184.639,99.824z M185.816,176.197l-6.614,1.459
				l0.365-5.22l6.614-1.457L185.816,176.197z M182.372,132.275l6.613-1.466l-0.365,5.22l-6.614,1.467L182.372,132.275z
				 M181.844,139.835l6.614-1.469l-0.642,9.19h-6.511L181.844,139.835z M187.539,151.524l-1.195,17.117l-6.614,1.459l1.298-18.576
				H187.539z M175.622,188.193l-0.62-0.221c-0.54-0.228-8.436-3.016-9.776-3.388c-0.508-0.152-3.98-0.832-5.072-1.02
				c-0.692-0.112-7.304-0.88-8.108-0.94l-6.852,0.352l-0.304,0.064c-1.16-3.424-5.5-15.924-8.732-20.72
				c-1.372-2.508-4.9-6.92-6.432-8.8c-0.24-0.292-0.7-0.808-1.24-1.412c-0.161-0.181-0.337-0.38-0.518-0.584h50.214L175.622,188.193
				z M179.038,179.996l6.614-1.46l-0.889,12.733c-0.352-0.018-0.581-0.029-0.581-0.029l-5.786-2.06L179.038,179.996z
				 M197.023,15.785l-6.603,1.296l0.364-5.208l6.603-1.295L197.023,15.785z M196.86,18.122l-2.13,30.51l-6.617,1.47l2.144-30.686
				L196.86,18.122z M187.949,52.441l6.617-1.468l-0.364,5.219l-6.618,1.467L187.949,52.441z M197.882,3.48l-0.333,4.762
				l-6.603,1.296l0.455-6.514L197.882,3.48z M187.421,59.998l6.618-1.468l-0.689,9.87h-6.516L187.421,59.998z M142.486,74.696
				c0-1.284,1.048-2.332,2.332-2.332h63.7c1.284,0,2.332,1.048,2.332,2.332v1.132c0,1.284-1.048,2.332-2.332,2.332h-63.7
				c-1.284,0-2.332-1.048-2.332-2.332V74.696z M144.818,87.928c-1.284,0-2.332-1.048-2.332-2.332v-1.132
				c0-1.284,1.048-2.332,2.332-2.332h63.7c1.284,0,2.332,1.048,2.332,2.332v1.132c0,1.284-1.048,2.332-2.332,2.332h-5.896
				c-0.08-0.003-0.151-0.01-0.232-0.012c0,0-0.246,0.004-0.692,0.012h-50.091c-0.462-0.008-0.723-0.012-0.737-0.012
				c-0.079,0.002-0.15,0.01-0.228,0.012H144.818z M139.61,115.384c2.088-4.88,3.036-9.612,2.884-14.464
				c-0.104-3.348,0.452-5.62,1.704-6.94c1.244-1.312,3.452-1.988,6.68-2.068c0,0,12.576,0.22,25.82,0.424
				c1.9-0.03,3.786-0.06,5.625-0.09l-3.863,55.31h-50.972c0.711-3.385,1.665-6.815,2.982-10.196
				C133.382,129.892,136.55,122.516,139.61,115.384z M161.938,275.708l-1.924-1.292l-7.024-2.952
				c-1.184-0.292-4.396-1.092-4.848-1.208c-1.272-0.308-4.596-1.148-4.944-1.244c-1.256-0.388-4.188-1.46-4.744-1.716l-3.152-1.336
				l-7.72-4.348l-3.56-2.652l-3.42-3.804l-9.944,7.584l-3.34,1.88c-2.644,1.184-14.892,5.488-16.988,6.028l-2.172,0.536
				c-2.94,0.6-6.644,1.652-9.748,4.44l-0.636-0.744c1.428-2.468,1.384-5.144,1.344-7.192l-0.776-13.612l0.292-5.092l1.084-6.816
				l3.08-9.512c0.008,0,0.032-0.028,0.084-0.092c0.376-0.476,1.152-1.456,0.808-2.752c-0.24-0.908-0.944-1.608-1.872-1.972
				l-6.368-4.096L72.366,221l-6.232-6.62l-4.916-7.456l-5.256-7.616l-1.264-1.328l-2.616-1.76l-0.28-0.332
				c0-0.256,0.016-0.372,0-0.396c0.116-0.052,0.528-0.196,1.716-0.22l1.9,0.044l0.292-0.084c2.276-0.652,9.16-2.888,10.116-3.256
				c2.44-0.932,13.624-4.276,15.54-4.684l6.56-0.664l1.452-0.016l4.284,0.28l4.504,0.788l0.788-5.036
				c0.252-0.812,0.424-1.56,0.596-2.3c0.292-1.284,0.544-2.392,1.288-3.808c3.368-6.74,13.18-20.592,15.68-23.676l0.244-0.38
				c0.244-0.504,0.512-1.004,0.776-1.504c0.644-1.212,1.308-2.464,1.772-3.852c0.312-0.932,0.48-1.14,0.896-1.072l1.372,3.684
				l0.552,1.056c0.548,0.796,1.788,2.212,3.36,3.972c0.504,0.572,0.936,1.052,1.208,1.38c2.88,3.528,5.104,6.556,6.04,8.248
				c2.88,4.288,7.208,16.436,8.632,20.752c0.368,1.116,1.052,1.636,1.56,1.884c1.152,0.548,2.276,0.14,2.78-0.084l6.22-0.328
				c0.48,0.044,6.984,0.804,7.552,0.892c1.204,0.208,4.18,0.8,4.64,0.92c1.192,0.332,8.788,3.016,9.368,3.248l2.952,1.196
				l5.676,1.972l5.9,0.5c0.192,0.312,0.228,0.472,0.244,0.476c-0.024,0.036-0.136,0.168-0.472,0.356
				c-3.292,1.82-5.12,4.672-6.996,7.604l-2.46,4c-0.76,1.012-1.504,2.032-2.252,3.056c-1.692,2.308-3.436,4.7-5.296,6.884
				c-1.6,1.876-3.58,3.744-6.24,5.868c-1.516,1.212-3.18,2.296-4.94,3.44c-0.82,0.532-1.648,1.072-2.488,1.64l-1.42,0.96
				l2.516,5.336l1.34,4.104c0.144,0.54,0.964,4.308,1.228,5.632c0.076,0.46,0.5,3.884,0.656,5.328c0.052,0.516,0.18,4.608,0.188,6
				l-0.54,7.228l-0.068,6.576l0.092,1.584l1.232,3.732L161.938,275.708z M225.546,253.32c-2.648,8.48-7.608,13.9-14.748,16.096
				c-3.384,1.044-7.352,1.584-12.492,1.716c-7.188,0.176-14.348,0.176-21.644,0.164c-3.851,0.01-7.648-0.004-11.435-0.031
				l-0.129-0.369l-0.076-1.18l0.008-2.416l0.592-11.088c0-1.512-0.124-5.944-0.208-6.636c-0.164-1.54-0.632-5.3-0.704-5.64
				c-0.276-1.396-1.136-5.324-1.304-5.952l-1.048-3.52l-1.572-3.432c0.34-0.224,0.672-0.436,1.004-0.656
				c1.844-1.2,3.588-2.332,5.26-3.668c2.603-2.086,4.617-3.952,6.287-5.833l-2.193,31.388l-0.062,0.013
				c0.013,0.107,0.026,0.213,0.039,0.32l-0.991,14.176l-0.096,1.416l12.14,0.844l1.781-25.508h43.734
				c-0.32,1.331-0.578,2.681-0.827,4.032C226.482,249.576,226.122,251.484,225.546,253.32z"/>
			<rect x="202.198" y="147.556" width="13.74" height="3.968"/>
			<path d="M125.358,215.464c1.276,0.676,2.852,0.992,4.524,0.992c4.488,0,9.672-2.288,11.604-6.096
				c-1.304-0.712-2.852-1.032-4.472-1.032C132.358,209.328,127.102,211.968,125.358,215.464z M129.882,214.192
				c-0.16,0-0.32-0.004-0.476-0.012c1.992-1.524,4.92-2.584,7.608-2.584c0.176,0,0.352,0.004,0.524,0.016
				C135.59,213.172,132.722,214.192,129.882,214.192z"/>
			<path d="M114.71,215.068c-1.768-3.532-7.024-5.948-11.596-5.948c-1.692,0-3.288,0.332-4.58,1.06
				c1.848,3.468,7.012,5.992,11.576,5.992C111.79,216.172,113.386,215.832,114.71,215.068z M102.598,211.4
				c0.172-0.008,0.34-0.012,0.516-0.012c2.76,0,5.668,1.012,7.624,2.496c-0.208,0.012-0.416,0.02-0.632,0.02
				C107.446,213.904,104.586,212.888,102.598,211.4z"/>
			<path d="M107.802,235.344c5.024-0.632,10.404-9.048,9.028-14.3C111.038,222.764,106.222,230.464,107.802,235.344z
				 M112.554,229.084c-0.8,1.18-1.724,2.172-2.644,2.88c0.18-0.908,0.532-1.88,1.044-2.852c0.892-1.7,2.164-3.208,3.568-4.308
				C114.178,226.188,113.502,227.68,112.554,229.084z"/>
			<path d="M123.098,221.236c-0.492,5.588,5.536,13.104,10.236,13.104c0.132,0,0.26-0.004,0.388-0.016
				C134.374,229.004,128.49,221.692,123.098,221.236z M128.746,229.296c-1.3-1.42-2.308-3.088-2.876-4.684
				c1.06,0.672,2.108,1.616,3.032,2.752c1.032,1.272,1.796,2.644,2.22,3.94C130.338,230.824,129.518,230.14,128.746,229.296z"/>
			<path d="M120.158,211.212c3.808-4.244,3.832-12.768-0.032-16.968C116.134,197.912,116.07,207.628,120.158,211.212z
				 M120.054,206.96c-0.42-1.16-0.66-2.544-0.676-4.02c-0.02-1.592,0.232-3.128,0.688-4.412
				C121.006,201.12,121.002,204.356,120.054,206.96z"/>
			<path d="M155.65,261.104l0.02-4l0.332-5.58l0.144-1.656c0-1.284-0.104-4.896-0.168-5.404c-0.116-1.152-0.496-4.28-0.56-4.596
				c-0.212-1.076-0.908-4.344-1.044-4.856c-0.288-0.972-0.572-1.94-0.88-2.988l-1.604-3.512c0.54-0.364,1.072-0.712,1.6-1.064
				c1.492-0.984,2.9-1.916,4.232-3c2.292-1.864,4.012-3.504,5.412-5.176c1.576-1.884,3.036-3.916,4.448-5.884
				c0.604-0.832,1.2-1.668,1.836-2.532l2.164-3.56c1.36-2.16,2.644-4.2,4.86-5.448c0.828-0.468,1.32-1.056,1.464-1.752
				c0.164-0.788-0.12-1.644-0.868-2.616l-0.656-0.408l-4.048-0.152l-4.12-1.284l-3.712-1.528c-0.44-0.188-6.816-2.476-7.896-2.78
				c-0.312-0.092-3.008-0.64-4.032-0.82c-0.568-0.092-5.944-0.724-6.416-0.764l-3.976,0.144l-1.576,0.144l-0.312,0.096
				c-0.204,0.08-0.58,0.224-0.684,0.172c-0.024-0.008-0.08-0.076-0.14-0.256c-0.444-1.364-4.452-13.452-7.3-17.764
				c-1.088-2.016-3.928-5.62-5.148-7.144c-0.196-0.236-0.572-0.672-1.02-1.184c-0.904-1.032-2.144-2.452-2.52-3.008l-0.208-0.356
				c-0.356-1.096-0.712-2.188-1.068-3.276l-1.04-1.12l-0.148-0.04c-2.508-0.652-3.36,0.972-3.78,2.248
				c-0.324,0.988-0.808,1.912-1.316,2.888c-0.224,0.432-0.452,0.86-0.596,1.192c-1.784,2.236-10.068,13.964-13.084,20.096
				c-0.724,1.4-0.984,2.552-1.232,3.668c-0.128,0.564-0.256,1.136-0.464,1.836l-0.344,2.188l-1.544-0.272l-3.712-0.252l-1.38,0.012
				l-5.576,0.568c-1.832,0.376-11.104,3.196-13.228,4.024c-0.7,0.268-6.12,2.064-8.016,2.624l-1.248-0.028
				c-1.604,0.024-2.484,0.284-3.028,0.876c-0.624,0.676-0.636,1.664-0.572,2.54l0.016,0.176l0.868,1.04l2.068,1.368l0.984,1.052
				l1.344,1.796l0.752,1.092l3.44,5.596l2.136,3.188l2.416,2.972l2.008,2.1l3.548,3.36l2.892,2.208l3.252,1.928
				c0.288,0.12,0.388,0.208,0.412,0.212c-0.032,0.084-0.172,0.26-0.256,0.368c-0.212,0.28-0.452,0.588-0.456,0.84l-2.156,6.208
				l-0.4,1.876l-0.852,4.892l-0.316,5.384l0.636,11.5c0.032,1.9-0.016,3.588-0.972,5.048l-0.252,1.516l1.964,2.324l1.792-0.176
				l0.144-0.148c2.216-2.268,5.104-3.104,7.388-3.584l1.844-0.456c1.852-0.484,12-4.108,14.324-5.172l2.928-1.672l6.672-5.168
				l1.596,1.728l2.12,1.708l1.092,0.752l2.304,1.392l3.612,2.056l3.272,1.44c0.36,0.208,3.18,1.232,4.168,1.544
				c0.332,0.092,3.104,0.804,4.164,1.064c0.348,0.088,2.988,0.756,3.912,0.984l4.068,1.48c0.352,0.232,0.708,0.46,1.052,0.692
				l2.188,1.488h1.48l1.62-1.696l0.032-1.392l-1.02-2.96L155.65,261.104z M155.594,266.212l-0.984,1.036h-0.652l-1.908-1.3
				c-0.368-0.252-0.744-0.492-1.116-0.736l-4.308-1.584c-0.968-0.24-3.612-0.912-3.96-1c-1.056-0.264-3.804-0.968-4.112-1.052
				c-1.132-0.356-3.672-1.304-3.984-1.468l-2.608-1.124l-3.58-1.912l-2.892-1.792l-1.036-0.708l-1.756-1.416l-2.484-2.664
				l-7.448,5.78l-2.82,1.6c-2.172,0.992-12.32,4.624-14.088,5.084l-1.816,0.452c-2.372,0.5-5.388,1.372-7.796,3.748l-0.792,0.076
				l-1.264-1.492l0.088-0.68c1.06-1.688,1.12-3.52,1.084-5.58l-0.612-10.164l-0.024-1.284l0.24-4.26l0.908-5.824l0.376-1.792
				l2.184-6.264c0.016-0.076,0.172-0.272,0.26-0.388c0.256-0.328,0.604-0.776,0.46-1.32c-0.144-0.536-0.684-0.812-1.012-0.948
				l-2.328-1.328l-3.056-2.204l-2.568-2.324l-2.628-2.632l-2.58-2.992l-0.536-0.724l-5.556-8.752l-2.176-2.992l-1.128-1.184
				l-1.98-1.3l-0.58-0.7c-0.044-0.784,0.048-1.264,0.288-1.524c0.308-0.336,0.988-0.492,2.2-0.516l1.396,0.036l0.084-0.028
				c1.832-0.536,7.472-2.404,8.192-2.684c2.032-0.788,11.3-3.608,12.992-3.964l5.472-0.556l1.268-0.008l3.612,0.248l2.048,0.364
				l0.584-0.016l0.488-3.124c0.2-0.652,0.336-1.252,0.468-1.844c0.244-1.092,0.48-2.128,1.14-3.408
				c2.804-5.696,10.904-17.324,13.028-20.008c0.204-0.428,0.428-0.848,0.644-1.268c0.512-0.976,1.036-1.988,1.388-3.056
				c0.464-1.42,1.04-1.824,2.276-1.552l0.588,0.588c0.344,1.048,0.688,2.096,1.072,3.244l0.272,0.496
				c0.436,0.652,1.656,2.044,2.632,3.16c0.436,0.5,0.804,0.924,1.044,1.216c0.896,1.116,3.912,4.92,5.008,6.944
				c2.84,4.316,7.016,17.004,7.196,17.54c0.144,0.456,0.388,0.768,0.724,0.924c0.532,0.248,1.112,0.036,1.572-0.14l5.428-0.308
				c0.372,0.032,5.736,0.668,6.256,0.752c1.1,0.196,3.66,0.72,3.904,0.792c1.02,0.284,7.356,2.56,7.78,2.736l3.752,1.544
				l3.168,1.048l1.192,0.292l3.788,0.1l0.248,0.136c0.476,0.648,0.672,1.192,0.584,1.62c-0.076,0.364-0.384,0.704-0.916,1.004
				c-2.46,1.388-3.88,3.648-5.256,5.828l-2.144,3.532c-0.612,0.828-1.216,1.664-1.816,2.504c-1.4,1.948-2.852,3.96-4.404,5.816
				c-1.348,1.616-3.016,3.212-5.256,5.028c-1.288,1.048-2.676,1.964-4.144,2.936c-0.656,0.436-1.324,0.88-2.004,1.344l-0.388,0.264
				l1.968,4.276c0.28,0.976,0.568,1.952,0.848,2.908c0.12,0.452,0.8,3.616,1.028,4.776c0.048,0.248,0.412,3.24,0.544,4.504
				c0.048,0.396,0.16,3.872,0.164,5.224l-0.44,5.9l-0.064,5.42l0.08,1.32l1.008,2.988L155.594,266.212z"/>
		</g>
	</g>
</g>
</svg>