<?xml version="1.0" encoding="iso-8859-1"?>
<!-- Uploaded to: SVG Repo, www.svgrepo.com, Generator: SVG Repo Mixer Tools -->
<svg fill="#000000" height="800px" width="800px" version="1.1" id="Layer_1" xmlns="http://www.w3.org/2000/svg" xmlns:xlink="http://www.w3.org/1999/xlink" 
	 viewBox="0 0 235.196 235.196" xml:space="preserve">
<g>
	<g>
		<g>
			<path d="M233.896,100.816c-0.58-0.18-14.24-4.392-25.416,2.032c-8.931,5.134-13.289,15.371-14.751,19.532
				c-2.721-0.828-5.617-1.371-8.668-1.53c-1.834-9.679-6.396-26.694-13.093-33.511c-4.164-4.236-9.08-7.424-14.608-9.476
				c-5.706-2.113-11.416-3.063-17.188-2.937c-8.738-7.25-19.245-10.624-30.959-9.835c-11.452,0.784-18.66,4.952-23.92,8
				c-1.839,1.064-3.445,1.984-4.743,2.446c2.532-12.01,10.771-20.971,17.459-26.49c0.852-0.704,0.972-1.964,0.268-2.816
				c-0.704-0.848-1.96-0.972-2.816-0.268c-3.128,2.58-6.567,5.882-9.689,9.855c0.802-5.393,0.803-12.124-1.967-18.527
				c-5.86-13.536-21.708-20.004-22.376-20.272l-1.264-0.504l-0.556,1.244c-0.284,0.632-6.86,15.692-0.988,29.264
				c4.797,11.081,16.284,17.423,20.662,19.506c-1.191,2.715-2.138,5.622-2.748,8.719c-9.615-2.482-33.559-6.644-45.042-2.137
				c-6.348,2.488-11.924,6.244-16.576,11.16C3.628,96.208-1.172,110.936,0.24,129.304c0.996,12.936,4.48,25.912,10.656,39.668
				c4.66,10.384,10.04,19.236,16.456,27.072c6.036,7.372,12.344,12.852,19.284,16.752c6.98,3.924,13.984,5.884,20.952,5.884
				c5.708,0,11.396-1.32,17.032-3.96c1.128-0.528,2.172-0.78,3.652-0.232c8.938,3.301,22.113,0.868,24.298,0.337
				c5.443,1.191,11.326,1.803,17.822,1.803c0.292,0,0.584,0,0.88-0.004c11.436-0.088,23.024-1.976,34.444-5.604
				c7.948-2.524,14.228-5.344,19.76-8.88c8.06-5.144,13.868-10.924,17.752-17.668c7.228-12.556,7.756-25.664,1.532-37.896
				c-4.536-8.912-10.568-13.432-14.56-16.428c-2.356-1.764-4.216-3.16-4.348-4.336c-0.032-0.277-0.072-0.587-0.116-0.912
				c10.697,0.861,19.322,7.124,24.764,12.376c0.388,0.376,0.888,0.56,1.388,0.56c0.524,0,1.048-0.204,1.44-0.612
				c0.768-0.796,0.744-2.06-0.052-2.828c-2.38-2.294-5.327-4.765-8.767-6.967c0.16,0.002,0.317,0.007,0.479,0.007
				c4.48,0,9.728-0.796,14.516-3.548c11.132-6.404,15.164-20.74,15.332-21.344l0.36-1.316L233.896,100.816z M81.14,62.749
				l-3.727-8.777l5.402-10.242c1.445,7.491-0.292,14.871-1.542,18.788C81.229,62.596,81.183,62.671,81.14,62.749z M82.158,41.079
				l-5.662,10.735l-3.448-8.12l5.612-9.786c0.972,1.402,1.847,2.895,2.544,4.505C81.585,39.292,81.888,40.184,82.158,41.079z
				 M77.478,32.316l-5.321,9.28l-2.851-6.714l3.754-7.117c0.009-0.018,0.008-0.038,0.016-0.056
				C74.619,29.07,76.12,30.607,77.478,32.316z M63.466,21.128c2.178,1.149,5.239,2.977,8.298,5.468
				c-0.125,0.081-0.237,0.181-0.312,0.321l-3.063,5.806L63.466,21.128z M61.22,45.896c-4.173-9.649-1.31-20.509,0.205-24.938
				l5.955,14.025c0.018,0.194,0.089,0.377,0.222,0.523l11.861,27.933C74.846,61.069,65.258,55.23,61.22,45.896z M89.18,210.596
				c-2.292-0.976-4.292-0.42-6.26,0.504c-11.432,5.348-22.656,4.76-34.324-1.796c-6.5-3.648-12.436-8.816-18.152-15.8
				c-6.188-7.556-11.388-16.12-15.9-26.172c-5.984-13.328-9.356-25.868-10.316-38.336C2.908,111.82,7.356,98.088,17.824,87.02
				c4.24-4.488,9.332-7.916,15.128-10.188c3.204-1.256,7.668-1.744,12.584-1.744c11.604,0,25.74,2.724,31.792,4.52
				c3.1,0.916,6.132-0.84,9.968-3.06C92.22,73.7,98.96,69.8,109.488,69.08c14.508-1.012,26.56,4.756,35.848,17.084
				c4.984,6.616,8.232,14.788,9.936,24.988c1.184,7.096,1.328,14.692,0.452,23.904c-1.276,13.352-4.412,26.104-9.328,37.9
				c-4.28,10.272-9.312,18.484-15.384,25.096c-5.964,6.492-12.3,10.708-19.376,12.884C110.54,211.276,99.704,215.08,89.18,210.596z
				 M187.804,133.348c3.916,2.936,9.28,6.96,13.396,15.044c5.664,11.124,5.18,22.592-1.436,34.084
				c-3.556,6.172-8.932,11.504-16.436,16.296c-5.232,3.34-11.212,6.02-18.82,8.436c-11.036,3.504-22.232,5.328-33.264,5.416
				c-4.098,0.031-7.929-0.203-11.556-0.666c5.07-2.607,9.784-6.309,14.276-11.198c6.392-6.96,11.668-15.552,16.128-26.264
				c5.068-12.164,8.304-25.308,9.616-39.06c0.912-9.568,0.756-17.496-0.488-24.944c-1.812-10.848-5.308-19.592-10.688-26.732
				c-1.26-1.672-2.578-3.235-3.948-4.689c3.818,0.311,7.609,1.145,11.392,2.545c4.976,1.844,9.4,4.712,13.144,8.528
				c6.964,7.088,11.884,28.416,12.764,36.12C182.216,129.156,184.68,131.004,187.804,133.348z M227.355,112.087
				c-0.061-0.044-0.117-0.094-0.191-0.123l-5.052-1.972l8.87-5.018C230.215,106.888,229.029,109.453,227.355,112.087z
				 M209.896,105.304c7.584-4.364,16.788-3.194,20.935-2.327l-11.109,6.285c-0.167,0.044-0.321,0.121-0.439,0.248l-22.456,12.705
				C198.499,117.902,202.533,109.54,209.896,105.304z M197.867,123.895c-0.062-0.026-0.122-0.055-0.184-0.082l6.762-3.826
				l8.878,3.461C207.402,125.197,201.337,124.549,197.867,123.895z M218.092,121.428c-0.716,0.412-1.451,0.759-2.19,1.077
				l-9.417-3.671l6.375-3.607l8.661,3.74C220.466,119.875,219.332,120.715,218.092,121.428z M222.972,117.619l-8.133-3.512
				l5.234-2.961l6.269,2.446C225.362,114.98,224.24,116.347,222.972,117.619z"/>
			<path d="M127.112,191.952c5.588-5.92,10.216-13.236,14.136-22.364c4.468-10.396,7.328-21.62,8.5-33.36
				c0.816-8.16,0.696-14.908-0.38-21.236c-1.564-9.192-4.588-16.588-9.248-22.612c-8.764-11.328-20.176-16.604-33.956-15.652
				c-10.832,0.744-17.22,4.212-21.888,6.744c-2.404,1.308-4.3,2.336-5.904,2.424c-1.48,0.084-5.196-1.476-7.388-2.404
				c-1.124-0.476-1.932-0.82-2.408-0.952c-10.772-2.944-21.148-2.564-30.828,1.148c-5.492,2.104-10.32,5.272-14.348,9.416
				c-9.82,10.1-14.016,22.568-12.816,38.12c0.852,11.024,3.888,22.084,9.28,33.816c4.068,8.848,8.772,16.392,14.38,23.064
				c5.256,6.248,10.74,10.884,16.768,14.172c6,3.272,12.016,4.912,18.012,4.912c4.936-0.004,9.86-1.112,14.74-3.348
				c1.184-0.54,2.3-0.788,3.804-0.264c8.956,3.128,20.244,0.508,21.224,0.212C115.512,201.764,121.504,197.892,127.112,191.952z
				 M108.268,202.06c-0.972,0.292-11.184,3.04-20.304-0.244c-1.856-0.668-3.408-0.32-4.956,0.388
				c-10.24,4.68-20.712,4.168-31.128-1.516c-5.828-3.176-11.14-7.676-16.248-13.748c-5.504-6.544-10.12-13.956-14.12-22.652
				c-5.304-11.532-8.288-22.392-9.12-33.196c-1.156-15,2.868-27.012,12.308-36.716c3.844-3.956,8.452-6.98,13.696-8.988
				c5.188-1.988,10.584-2.984,16.144-2.984c4.42,0,8.948,0.628,13.556,1.896c0.356,0.1,1.244,0.476,2.18,0.872
				c2.636,1.12,6.24,2.64,8.196,2.544c2.008-0.112,4.064-1.224,6.668-2.64c4.52-2.452,10.708-5.816,21.148-6.528
				c13.136-0.868,24.028,4.132,32.396,14.952c4.476,5.784,7.384,12.916,8.892,21.808c1.044,6.164,1.16,12.756,0.364,20.752
				c-1.156,11.556-3.968,22.596-8.364,32.824c-3.836,8.924-8.344,16.068-13.788,21.832
				C120.408,196.42,114.676,200.132,108.268,202.06z"/>
			<path d="M96.372,132.244c-1.916-0.904-3.992-1.264-6.18,2.276c-1.972,3.2-1.844,9.2-1.836,9.452l0.036,1.484l1.3-0.708
				c0.244-0.136,6-3.296,7.96-6.468c0.984-1.588,1.296-2.812,0.988-3.852C98.304,133.292,97.304,132.688,96.372,132.244z
				 M96.116,137.324c-1.172,1.9-4.152,3.928-5.916,5.02c0.088-1.892,0.408-5.04,1.54-6.872c0.968-1.572,1.728-2.036,2.436-2.036
				c0.48,0,0.94,0.216,1.424,0.444c0.82,0.388,1.2,0.696,1.304,1.056C97.008,135.28,96.952,135.972,96.116,137.324z"/>
			<path d="M77.436,135.396c-2.648-3.208-4.656-2.568-6.432-1.408c-0.864,0.568-1.772,1.304-1.948,2.472
				c-0.164,1.076,0.316,2.244,1.504,3.684c2.376,2.876,8.512,5.22,8.772,5.316l1.388,0.524l-0.168-1.476
				C80.52,144.256,79.832,138.296,77.436,135.396z M71.956,138.984c-1.012-1.224-1.16-1.904-1.108-2.256
				c0.06-0.372,0.392-0.724,1.152-1.224c0.512-0.336,0.996-0.652,1.564-0.652c0.652,0,1.42,0.416,2.476,1.7
				c1.372,1.66,2.12,4.732,2.464,6.596C76.608,142.308,73.38,140.708,71.956,138.984z"/>
			<path d="M174.192,194.564c14.008-4.748,22.644-17.344,21.996-32.144c-0.052-1.16-1.864-1.168-1.816,0
				c0.612,13.98-7.392,25.9-20.664,30.396C172.608,193.188,173.08,194.94,174.192,194.564z"/>
			<path d="M168.38,110.136c-2.572,0-2.58,4,0,4C170.952,114.136,170.96,110.136,168.38,110.136z"/>
			<path d="M162.74,196.62c-2.576,0-2.58,4,0,4C165.312,200.62,165.32,196.62,162.74,196.62z"/>
			<path d="M150.988,196.62c-2.572,0-2.576,4,0,4C153.56,200.62,153.568,196.62,150.988,196.62z"/>
			<path d="M163.208,179.232c-2.572,0-2.576,4,0,4C165.78,183.232,165.788,179.232,163.208,179.232z"/>
		</g>
	</g>
</g>
</svg>