<?xml version="1.0" encoding="iso-8859-1"?>
<!-- Uploaded to: SVG Repo, www.svgrepo.com, Generator: SVG Repo Mixer Tools -->
<svg fill="#000000" height="800px" width="800px" version="1.1" id="Layer_1" xmlns="http://www.w3.org/2000/svg" xmlns:xlink="http://www.w3.org/1999/xlink" 
	 viewBox="0 0 213.837 213.837" xml:space="preserve">
<g>
	<g>
		<g>
			<path d="M213.664,108.781c-1.284-15.492-9.192-30.028-22.256-40.928c-16.204-13.512-39-20.128-64.712-19.092
				c-2.648-0.072-5.316-0.032-8.004,0.232c-3.904,0.384-7.7,1.16-11.4,2.208c-7.584-7.944-16.508-12.976-27.112-15.276
				c-7.76-1.684-16.788-1.98-25.84-0.872l1.092-8.76c0.076-0.58-0.22-1.144-0.736-1.42c-0.512-0.28-1.144-0.216-1.588,0.168
				l-7.744,6.572l-4.152-3.504c-0.344-0.288-0.8-0.404-1.236-0.296c-0.436,0.1-0.8,0.404-0.98,0.816l-2.792,6.4l-7.032-1.892
				c-0.588-0.16-1.204,0.076-1.544,0.576c-0.336,0.5-0.32,1.164,0.044,1.648l4.372,5.796c-6.968,3.184-13.228,7.468-17.904,13.148
				c-27.104,32.944-10.04,93.048,7.924,113.488c13.964,15.884,26.628,21.344,49.828,21.344c0.34,0,0.688,0,1.032,0
				c10.724-0.072,20.652-3.476,29.392-8.796c7.388,2.864,15.232,4.38,23.248,4.38c2.124,0,4.26-0.104,6.404-0.316
				c2.728-0.268,5.4-0.756,8.04-1.348C189.464,175.089,216.26,140.013,213.664,108.781z M72.912,186.293
				c-23.12,0.304-35.016-4.792-48.716-20.376C6.78,146.097-9.84,87.913,16.328,56.101c5.028-6.112,12.24-10.864,19.98-13.956
				c-0.268-0.488-0.568-0.864-0.912-1.26l-0.708-0.94c0-0.004-0.004-0.008-0.004-0.012H34.68l-2.256-2.992l4.232,1.136
				c0.668,0.184,1.388-0.16,1.668-0.804l2.52-5.776l3.616,3.052c0.536,0.448,1.304,0.444,1.832-0.004l5.884-5l-1.152,9.26
				l-5.404,0.82l0.42,2.8l6.464-0.98c0.628-0.092,1.116-0.596,1.196-1.224l0.288-2.328c3.496-0.464,6.996-0.748,10.424-0.748
				c5.336,0,10.492,0.528,15.168,1.544c9.544,2.068,17.664,6.516,24.652,13.464c-11.728,3.964-22.156,11.204-30.168,21.244
				c-11.172,14.004-16.352,31.672-14.58,49.748c1.768,18.076,10.28,34.404,23.96,45.972c4.816,4.072,10.084,7.348,15.64,9.852
				C91.2,183.429,82.376,186.229,72.912,186.293z M139.612,180.233c-2.604,0.46-5.168,0.828-7.668,1.072
				c-0.396,0.04-0.816,0.064-1.224,0.092c-0.12,0.076-0.22,0.168-0.34,0.244c-16.372,1.26-32.34-3.892-45.104-14.684
				c-13.112-11.088-21.268-26.744-22.968-44.084c-1.7-17.336,3.26-34.28,13.972-47.704c10.516-13.18,25.352-21.38,41.824-23.228
				c0.116,0.064,0.236,0.12,0.336,0.2c0.276-0.032,0.556-0.084,0.832-0.112c2.488-0.244,4.916-0.328,7.352-0.428
				c31.864,0.852,59.92,26.256,63.12,58.884c1.692,17.24-3.516,34.18-14.656,47.704
				C165.784,169.481,153.388,177.093,139.612,180.233z M161.644,173.949c5.792-3.768,11.076-8.428,15.632-13.956
				c11.624-14.108,17.056-31.788,15.288-49.784c-2.648-27.04-21.708-49.308-46.072-57.796c16.86,2.18,31.7,8.108,43.1,17.616
				c12.48,10.412,20.028,24.252,21.248,38.984C213.524,141.309,188.8,163.177,161.644,173.949z"/>
			<path d="M187.516,110.861c-3.344-34.096-34.66-60.096-68.324-56.808c-16.272,1.596-30.928,9.612-41.268,22.576
				c-10.34,12.956-15.132,29.308-13.488,46.036c1.636,16.728,9.512,31.836,22.172,42.54c11.12,9.404,24.768,14.42,38.952,14.42
				c1.96,0.004,3.936-0.092,5.912-0.288C165.744,175.977,190.888,145.257,187.516,110.861z M131.36,178.205
				c-15.976,1.564-31.596-3.356-44.028-13.864c-12.432-10.512-20.164-25.352-21.776-41.784c-1.608-16.432,3.092-32.496,13.248-45.22
				c10.152-12.72,24.532-20.588,40.496-22.156c33.064-3.236,63.804,22.304,67.088,55.788
				C189.697,144.745,165.008,174.905,131.36,178.205z"/>
			<path d="M164.84,110.773c-0.944-0.78-2.176-1.184-3.288-1.076c-1.772,0.172-4.416,2.5-5.18,3.212l-1.376,1.268l1.592,0.98
				c0.852,0.52,3.656,2.156,5.448,2.156c0.088,0,0.172-0.004,0.252-0.012c1.112-0.108,2.244-0.74,3.024-1.688
				c0.656-0.8,0.968-1.7,0.888-2.528C166.121,112.253,165.637,111.429,164.84,110.773z M162.02,114.481
				c-0.348,0-1.2-0.296-2.184-0.776c0.872-0.66,1.66-1.144,1.988-1.184c0.708-0.064,1.488,0.584,1.56,0.82
				C163.364,113.617,162.728,114.413,162.02,114.481z"/>
			<path d="M82.592,123.721c0.848,0.696,1.916,1.092,2.928,1.092c0.124,0,0.248-0.004,0.368-0.016
				c1.768-0.176,4.412-2.504,5.18-3.212l1.376-1.268l-1.592-0.98c-0.892-0.548-3.988-2.284-5.708-2.144
				c-1.112,0.108-2.244,0.74-3.024,1.688c-0.656,0.8-0.968,1.7-0.888,2.528C81.312,122.241,81.796,123.065,82.592,123.721z
				 M85.416,120.009c0.012,0,0.024,0,0.036,0c0.352,0,1.2,0.316,2.152,0.776c-0.876,0.66-1.668,1.144-1.992,1.188
				c-0.72,0.088-1.488-0.588-1.56-0.82C84.072,120.873,84.708,120.081,85.416,120.009z"/>
			<path d="M120.656,85.969l0.976-1.592c0.548-0.892,2.32-3.936,2.144-5.708c-0.108-1.112-0.744-2.24-1.692-3.02
				c-0.796-0.656-1.692-0.984-2.528-0.888c-0.928,0.088-1.852,0.688-2.528,1.644c-0.644,0.912-0.956,2.008-0.86,3.008
				c0.172,1.768,2.504,4.412,3.216,5.18L120.656,85.969z M119.812,77.581c0.28,0.016,1.076,0.656,1.144,1.36
				c0.024,0.332-0.3,1.2-0.776,2.188c-0.66-0.872-1.144-1.664-1.188-1.992C118.92,78.429,119.58,77.649,119.812,77.581z"/>
			<path d="M126.784,148.521l-0.976,1.592c-0.548,0.892-2.32,3.936-2.144,5.708c0.204,2.064,2.116,3.92,3.96,3.92
				c0.088,0,0.176-0.004,0.26-0.012c1.916-0.188,3.592-2.496,3.384-4.656c-0.172-1.772-2.504-4.416-3.216-5.184L126.784,148.521z
				 M127.628,156.913c-0.276-0.016-1.076-0.656-1.144-1.36c-0.024-0.332,0.3-1.2,0.776-2.188c0.66,0.872,1.144,1.664,1.188,1.996
				C128.516,156.065,127.856,156.845,127.628,156.913z"/>
			<path d="M152.26,100.805l-0.788,1.7l1.848,0.296c0.584,0.096,1.952,0.288,3.32,0.288c1.048,0,2.088-0.116,2.772-0.476
				c1.916-1.016,2.916-3.688,2.008-5.392c-0.9-1.7-3.68-2.364-5.588-1.356C154.257,96.701,152.704,99.861,152.26,100.805z
				 M157.164,98.369c0.628-0.336,1.6-0.02,1.748,0.164c0.088,0.264-0.196,1.248-0.824,1.58c-0.292,0.144-1.224,0.176-2.316,0.112
				C156.332,99.281,156.876,98.533,157.164,98.369z"/>
			<path d="M95.172,133.681l0.788-1.696l-1.848-0.296c-1.04-0.168-4.524-0.644-6.092,0.188c-1.916,1.02-2.912,3.692-2.008,5.396
				c0.616,1.156,2.088,1.832,3.572,1.832c0.704,0,1.408-0.156,2.02-0.48C93.176,137.789,94.732,134.629,95.172,133.681z
				 M90.272,136.121c-0.628,0.336-1.6,0.02-1.748-0.164c-0.088-0.264,0.196-1.248,0.824-1.58c0.2-0.096,0.688-0.144,1.32-0.144
				c0.304,0,0.64,0.008,0.996,0.032C91.108,135.205,90.564,135.957,90.272,136.121z"/>
			<path d="M107.284,88.701l1.7,0.788l0.296-1.848c0.168-1.032,0.644-4.52-0.192-6.092c-1.008-1.916-3.68-2.908-5.392-2.008
				c-1.704,0.904-2.376,3.672-1.36,5.592C103.172,86.705,106.336,88.261,107.284,88.701z M105.004,82.053
				c0.032-0.012,0.076-0.016,0.124-0.016c0.368,0,1.16,0.288,1.452,0.836c0.148,0.3,0.184,1.228,0.116,2.32
				c-0.944-0.556-1.692-1.1-1.856-1.388C104.508,83.173,104.824,82.201,105.004,82.053z"/>
			<path d="M140.156,145.789l-1.7-0.788l-0.296,1.848c-0.168,1.032-0.644,4.52,0.188,6.092c0.524,0.988,1.54,1.792,2.716,2.152
				c0.424,0.128,0.848,0.192,1.248,0.192c0.524,0,1.016-0.112,1.432-0.336c1.704-0.904,2.376-3.672,1.356-5.588
				C144.264,147.789,141.104,146.229,140.156,145.789z M142.428,152.437c-0.264,0.084-1.244-0.196-1.576-0.824
				c-0.148-0.3-0.184-1.224-0.116-2.32c0.944,0.556,1.696,1.104,1.856,1.392C142.928,151.317,142.616,152.289,142.428,152.437z"/>
			<path d="M143.724,93.005l1.82-0.432c1.016-0.24,4.42-1.132,5.556-2.504c1.38-1.676,1.276-4.52-0.208-5.752
				c-1.492-1.224-4.304-0.78-5.688,0.884c-1.132,1.376-1.36,4.888-1.408,5.932L143.724,93.005z M147.392,87.005
				c0.34-0.412,1-0.564,1.4-0.564c0.128,0,0.232,0.016,0.28,0.044c0.184,0.212,0.292,1.228-0.16,1.772
				c-0.22,0.248-1.06,0.636-2.092,0.992C146.972,88.169,147.188,87.269,147.392,87.005z"/>
			<path d="M103.72,141.485l-1.824,0.432c-1.016,0.24-4.424,1.136-5.56,2.504c-1.384,1.676-1.276,4.524,0.212,5.752
				c0.552,0.456,1.308,0.696,2.152,0.696c0.256,0,0.524-0.024,0.792-0.068c1.1-0.188,2.096-0.74,2.74-1.512
				c1.132-1.376,1.364-4.888,1.412-5.932L103.72,141.485z M100.044,147.485c-0.452,0.544-1.476,0.628-1.676,0.516
				c-0.188-0.212-0.296-1.224,0.152-1.772c0.224-0.248,1.068-0.636,2.1-0.992C100.468,146.321,100.248,147.221,100.044,147.485z"/>
			<path d="M91.68,95.761c1.372,1.132,4.888,1.36,5.932,1.404l1.868,0.08l-0.428-1.82c-0.244-1.016-1.132-4.424-2.508-5.56
				c-1.672-1.376-4.52-1.28-5.752,0.208c-0.592,0.724-0.824,1.796-0.628,2.948C90.352,94.121,90.904,95.117,91.68,95.761z
				 M92.964,91.893c0.1-0.088,0.392-0.16,0.724-0.16c0.356,0,0.764,0.084,1.052,0.316c0.248,0.22,0.636,1.064,0.992,2.096
				c-1.084-0.152-1.984-0.372-2.248-0.576C92.932,93.121,92.848,92.101,92.964,91.893z"/>
			<path d="M149.828,137.325l-1.872-0.08l0.432,1.82c0.244,1.016,1.132,4.424,2.508,5.56c0.792,0.652,1.844,0.972,2.868,0.972
				c1.136,0,2.236-0.4,2.884-1.18c1.228-1.488,0.788-4.3-0.884-5.684C154.388,137.597,150.872,137.369,149.828,137.325z
				 M154.476,142.597c-0.208,0.184-1.22,0.3-1.772-0.156c-0.248-0.22-0.636-1.064-0.992-2.096c1.084,0.156,1.988,0.372,2.248,0.576
				C154.504,141.369,154.588,142.389,154.476,142.597z"/>
			<path d="M132.992,87.217l1.52-1.092c0.848-0.608,3.66-2.732,4.188-4.432c0.64-2.072-0.54-4.668-2.384-5.24
				c-1.828-0.564-4.276,0.912-4.92,2.984c-0.524,1.7,0.6,5.04,0.956,6.02L132.992,87.217z M134.104,80.273
				c0.204-0.66,1.068-1.12,1.336-1.12c0.004,0,0.012,0,0.02,0c0.248,0.124,0.74,1.02,0.532,1.7
				c-0.108,0.312-0.744,0.992-1.568,1.716C134.156,81.509,134.012,80.589,134.104,80.273z"/>
			<path d="M114.448,147.273l-1.52,1.092c-0.848,0.608-3.66,2.732-4.188,4.432c-0.296,0.96-0.212,2.096,0.24,3.116
				c0.468,1.072,1.248,1.844,2.144,2.12c0.268,0.084,0.552,0.124,0.84,0.124c1.68,0,3.536-1.336,4.084-3.104
				c0.524-1.7-0.6-5.04-0.956-6.02L114.448,147.273z M113.336,154.217c-0.212,0.68-1.064,1.152-1.356,1.116
				c-0.248-0.124-0.74-1.02-0.528-1.696c0.104-0.316,0.74-0.992,1.564-1.716C113.284,152.981,113.428,153.901,113.336,154.217z"/>
			<path d="M85.912,109.569c0.312,0.096,0.684,0.14,1.084,0.14c1.768,0,4.136-0.804,4.936-1.092l1.756-0.64l-1.088-1.52
				c-0.608-0.848-2.732-3.664-4.432-4.188c-0.972-0.296-2.104-0.208-3.12,0.24c-1.072,0.472-1.844,1.252-2.116,2.144
				c-0.248,0.8-0.116,1.744,0.364,2.66C83.864,108.393,84.844,109.241,85.912,109.569z M86.972,104.925
				c0.124,0,0.244,0.016,0.356,0.052c0.316,0.108,0.996,0.744,1.72,1.564c-1.068,0.268-1.984,0.408-2.296,0.324
				c-0.68-0.212-1.144-1.116-1.116-1.356C85.736,105.297,86.372,104.925,86.972,104.925z"/>
			<path d="M161.524,124.921c-1.704-0.532-5.04,0.6-6.02,0.956l-1.756,0.64l1.088,1.52c0.612,0.848,2.736,3.66,4.432,4.184
				c0.376,0.116,0.78,0.172,1.192,0.172c0.756,0,1.548-0.192,2.248-0.564c0.916-0.484,1.552-1.192,1.796-1.988
				c0.276-0.896,0.08-1.976-0.544-2.968C163.376,125.929,162.488,125.217,161.524,124.921z M160.112,129.513
				c-0.312-0.108-0.992-0.744-1.716-1.564c1.056-0.272,1.96-0.416,2.292-0.324c0.68,0.212,1.144,1.12,1.116,1.36
				C161.676,129.237,160.784,129.721,160.112,129.513z"/>
			<path d="M165.752,104.517l-28.088,5.284l20.016-20.4l-23.928,15.632l10.688-26.508l-16.128,23.596l-0.268-28.588l-5.868,27.972
				l-11.188-26.3l5.284,28.088l-20.4-20.016l15.632,23.928L84.996,96.517l23.596,16.128l-28.58,0.272l27.972,5.868l-26.3,11.188
				l28.088-5.284l-20.016,20.4l23.928-15.632l-10.688,26.508l16.128-23.6l0.272,28.58l5.868-27.972l11.188,26.312l-5.284-28.088
				l20.4,20.016l-15.632-23.928l26.508,10.688l-23.6-16.128l28.58-0.272l-27.972-5.868L165.752,104.517z M156.972,120.541
				l-18.136,0.172l-3.608,0.036l2.98,2.036l14.976,10.232l-16.824-6.78l-3.348-1.348l1.972,3.02l9.92,15.184l-12.948-12.704
				l-2.576-2.528l0.668,3.544l3.352,17.824l-7.1-16.692l-1.412-3.32l-0.736,3.532l-3.724,17.752l-0.172-18.136l-0.036-3.608
				l-2.036,2.98l-10.232,14.976l6.78-16.824l1.348-3.348l-3.02,1.972l-15.188,9.92l12.704-12.948l2.528-2.576l-3.544,0.668
				l-17.824,3.352l16.692-7.1l3.32-1.412l-3.532-0.74l-17.752-3.724l18.136-0.172l3.608-0.036l-2.98-2.036l-14.976-10.232
				l16.824,6.78l3.348,1.348l-1.972-3.02l-9.92-15.184l12.948,12.704l2.576,2.528l-0.668-3.544l-3.352-17.824l7.1,16.692l1.412,3.32
				l0.74-3.532l3.724-17.752l0.172,18.136l0.036,3.608l2.036-2.98l10.232-14.976l-6.78,16.824l-1.348,3.348l3.02-1.972l15.184-9.92
				l-12.704,12.948l-2.528,2.576l3.544-0.668l17.824-3.352l-16.692,7.1l-3.32,1.412l3.532,0.74L156.972,120.541z"/>
			<path d="M31.272,58.801c-2.576,0-2.58,4,0,4C33.844,62.801,33.852,58.801,31.272,58.801z"/>
			<path d="M20.76,82.889c-2.576,0-2.58,4,0,4C23.332,86.889,23.34,82.889,20.76,82.889z"/>
			<path d="M34.024,87.053c-2.572,0-2.576,4,0,4C36.596,91.053,36.604,87.053,34.024,87.053z"/>
			<path d="M18.848,98.021c-2.576,0-2.58,4,0,4C21.42,102.021,21.428,98.021,18.848,98.021z"/>
		</g>
	</g>
</g>
</svg>