<?xml version="1.0" encoding="iso-8859-1"?>
<!-- Uploaded to: SVG Repo, www.svgrepo.com, Generator: SVG Repo Mixer Tools -->
<svg fill="#000000" height="800px" width="800px" version="1.1" id="Layer_1" xmlns="http://www.w3.org/2000/svg" xmlns:xlink="http://www.w3.org/1999/xlink" 
	 viewBox="0 0 245.36 245.36" xml:space="preserve">
<g>
	<g>
		<g>
			<path d="M70.648,64.878c-34.112,0-61.86,27.752-61.86,61.86c0,34.108,27.752,61.86,61.86,61.86
				c34.108,0,61.86-27.752,61.86-61.86S104.76,64.878,70.648,64.878z M70.648,187.466c-33.488,0-60.728-27.244-60.728-60.728
				S37.164,66.01,70.648,66.01s60.728,27.244,60.728,60.728S104.136,187.466,70.648,187.466z"/>
			<path d="M22.656,126.002c0.24,0,0.388-0.012,0.408-0.012l44.236-0.448l-0.872-0.94c-0.252-0.268-25.084-26.96-29.672-31.308
				c-1.244-1.172-2.74-1.62-4.468-1.324c-4.36,0.756-9.312,6.3-11.756,11.128c-3.092,6.1-3.384,8.516-4.252,15.68
				c-0.28,2.308,0.192,4.116,1.408,5.376C19.292,125.822,21.704,126.002,22.656,126.002z M17.404,118.914
				c0.848-7.02,1.136-9.384,4.14-15.308c2.352-4.648,7.088-9.852,10.936-10.52c0.284-0.048,0.556-0.072,0.82-0.072
				c1.016,0,1.896,0.364,2.672,1.1c4.076,3.856,24.276,25.516,28.748,30.316l-41.708,0.428c-0.028,0-2.872,0.212-4.508-1.492
				C17.536,122.362,17.168,120.866,17.404,118.914z"/>
			<path d="M67.724,74.718c-3.632-2.54-10.988-2.144-16.056-0.476c-6.448,2.116-8.34,3.616-13.968,8.076
				c-1.8,1.424-2.728,3.036-2.76,4.78c-0.052,2.924,2.448,5.1,2.524,5.164L69.12,123.51l0.036-1.304
				c0.012-0.368,1.064-36.988,0.848-43.34C69.948,77.13,69.18,75.734,67.724,74.718z M68.06,120.87L38.228,91.422
				c-0.024-0.016-2.204-1.912-2.16-4.308c0.024-1.392,0.812-2.708,2.332-3.916c5.656-4.484,7.364-5.832,13.616-7.884
				c2.436-0.8,5.392-1.276,8.14-1.276c2.756,0,5.308,0.484,6.916,1.604c1.164,0.816,1.752,1.88,1.8,3.256
				C69.064,84.538,68.244,114.254,68.06,120.87z"/>
			<path d="M71.82,123.366l0.944-0.9c0.264-0.252,26.632-25.396,30.924-30.04c1.168-1.26,1.6-2.788,1.292-4.536
				c-0.772-4.392-6.252-9.376-11.02-11.832c-6.044-3.112-8.432-3.408-15.528-4.272c-2.26-0.276-4.036,0.192-5.284,1.392
				c-2.108,2.028-1.856,5.376-1.848,5.476L71.82,123.366z M73.936,73.99c0.796-0.764,1.9-1.152,3.296-1.152
				c0.336,0,0.692,0.024,1.068,0.068c6.94,0.848,9.28,1.136,15.144,4.156c4.584,2.364,9.74,7.136,10.424,11.024
				c0.244,1.38-0.096,2.58-1.008,3.568c-3.808,4.116-25.164,24.532-29.932,29.088l-0.496-42.144
				C72.428,78.57,72.212,75.65,73.936,73.99z"/>
			<path d="M104.74,93.218l-30.904,31.976l1.28,0.036c0.332,0.008,30.308,0.892,40.476,0.892c1.016,0,1.836-0.008,2.412-0.028
				c1.692-0.06,3.06-0.812,4.064-2.24c2.56-3.64,2.18-11.108,0.52-16.284c-2.096-6.528-3.584-8.44-7.988-14.116
				c-1.412-1.82-3.008-2.76-4.744-2.792c-0.028,0-0.06,0-0.088,0C106.916,90.662,104.804,93.142,104.74,93.218z M109.84,91.794
				c1.372,0.024,2.672,0.816,3.868,2.352c4.312,5.56,5.764,7.428,7.804,13.768c1.596,4.984,1.896,12.064-0.368,15.284
				c-0.8,1.14-1.84,1.712-3.176,1.76c-5.564,0.204-34.996-0.636-41.528-0.824l29.148-30.16
				C105.604,93.954,107.452,91.794,109.84,91.794z"/>
			<path d="M123.6,129.234c-2.012-2.084-5.292-1.844-5.384-1.828l-44.24,0.528l0.876,0.936c0.248,0.268,25.128,26.916,29.724,31.256
				c0.992,0.936,2.148,1.408,3.448,1.408c0.332,0,0.668-0.032,1.02-0.092c4.356-0.76,9.304-6.312,11.748-11.144
				c3.076-6.104,3.368-8.52,4.228-15.688C125.296,132.306,124.816,130.494,123.6,129.234z M123.892,134.478
				c-0.84,7.02-1.124,9.384-4.112,15.312c-2.352,4.652-7.084,9.868-10.928,10.54c-1.372,0.236-2.508-0.096-3.496-1.024
				c-4.08-3.852-24.316-25.476-28.796-30.268l41.708-0.5c0.036,0,2.884-0.208,4.52,1.488
				C123.752,131.026,124.124,132.526,123.892,134.478z"/>
			<path d="M103.82,161.214l-31.656-31.248l-0.036,1.304c-0.012,0.368-1.064,36.988-0.848,43.34c0.06,1.736,0.828,3.128,2.28,4.148
				c1.832,1.28,4.616,1.816,7.576,1.816c2.904,0,5.972-0.512,8.488-1.332c6.448-2.12,8.344-3.62,13.968-8.076
				c1.8-1.428,2.728-3.036,2.76-4.784C106.4,163.454,103.896,161.278,103.82,161.214z M102.88,170.274
				c-5.504,4.36-7.36,5.832-13.616,7.888c-4.884,1.596-11.848,1.912-15.056-0.332c-1.164-0.816-1.752-1.88-1.8-3.256
				c-0.188-5.636,0.628-35.352,0.812-41.968l29.832,29.444c0.02,0.02,2.208,1.928,2.16,4.32
				C105.18,167.754,104.4,169.07,102.88,170.274z"/>
			<path d="M69.46,130.11l-0.94,0.9c-0.264,0.252-26.628,25.4-30.924,30.04c-1.168,1.26-1.604,2.788-1.296,4.536
				c0.772,4.392,6.252,9.376,11.02,11.836c6.044,3.112,8.436,3.408,15.528,4.272c0.416,0.052,0.82,0.076,1.204,0.076
				c1.696,0,3.064-0.492,4.08-1.468c2.108-2.028,1.86-5.376,1.848-5.476L69.46,130.11z M67.34,179.486
				c-0.988,0.948-2.436,1.32-4.356,1.08c-6.94-0.848-9.28-1.136-15.144-4.156c-4.588-2.368-9.74-7.14-10.424-11.024
				c-0.244-1.38,0.096-2.58,1.012-3.568c3.808-4.116,25.16-24.532,29.932-29.088l0.492,42.144
				C68.852,174.902,69.064,177.834,67.34,179.486z"/>
			<path d="M36.536,160.262l30.904-31.98l-1.28-0.036c-0.364-0.008-36.584-1.068-42.884-0.856c-1.692,0.056-3.06,0.808-4.064,2.236
				c-2.564,3.64-2.184,11.108-0.524,16.288c2.096,6.516,3.58,8.428,7.988,14.112c1.416,1.82,3.008,2.756,4.744,2.792
				c0.028,0,0.06,0,0.088,0C34.36,162.818,36.472,160.338,36.536,160.262z M31.512,161.678c-0.024,0-0.048,0-0.072,0
				c-1.372-0.024-2.676-0.816-3.868-2.352c-4.316-5.564-5.768-7.44-7.804-13.764c-1.596-4.988-1.896-12.068,0.372-15.288
				c0.8-1.136,1.836-1.712,3.176-1.756c0.572-0.02,1.392-0.028,2.416-0.028c8.952,0,33.248,0.68,39.108,0.848l-29.144,30.164
				C35.676,159.522,33.84,161.678,31.512,161.678z"/>
			<path d="M243.98,149.238c-0.62-0.156-12.596-3.088-24.952,0.752c7.896-17.164,9.328-36.368,9.232-39.852
				c1.648-2.592,6.368-10.54,5.124-14.748c-1.244-4.208-9.528-8.308-12.32-9.584c-3.228-5.292-28.792-44.24-76.248-36.924
				c-16.672,2.564-31.384,7.764-43.788,14.164c-9.216-4.416-19.492-6.96-30.376-6.96C31.696,56.086,0,87.778,0,126.738
				c0,38.96,31.692,70.652,70.648,70.652c10.104,0,19.696-2.168,28.396-6.008c7.788,2.376,17.284,3.892,28.12,3.888
				c16.784,0,36.404-3.484,56.344-12.296c3.024,1.316,5.096,1.916,5.356,1.988c0,0,7.232,1.688,13.556,1.688
				c6.54,0,14.936-1.208,22.436-6.016c14.7-9.424,19.928-28.84,20.144-29.664l0.36-1.38L243.98,149.238z M231.152,150.95
				c4.252-0.128,7.796,0.264,9.932,0.62l-10.208,6.544L231.152,150.95z M224.972,151.518c1.744-0.292,3.424-0.448,5.044-0.536
				l-0.3,7.88l-5.148,3.3L224.972,151.518z M223.828,151.77l-0.428,11.136l-5.624,3.604l-0.084-12.98
				C219.744,152.75,221.8,152.166,223.828,151.77z M70.648,193.418c-36.764,0-66.68-29.912-66.68-66.68s29.916-66.68,66.68-66.68
				c36.764,0,66.68,29.916,66.68,66.68C137.328,163.502,107.412,193.418,70.648,193.418z M169.864,170.902l12.336,0.78l5.272,9.816
				C183.972,180.19,176.724,176.978,169.864,170.902z M160.092,130.522l4.268,7.944l-10.968-1.344
				c-0.328-2.648-0.512-5.192-0.6-7.572L160.092,130.522z M152.752,128.398c-0.116-4.584,0.116-8.444,0.34-10.912l6.34,11.804
				L152.752,128.398z M165.016,139.686l5.008,9.324l-14.42-0.912c-0.956-3.296-1.616-6.608-2.06-9.816L165.016,139.686z
				 M170.656,150.186l5.348,9.956l-16.252-1.796c-0.048-0.088-0.1-0.164-0.148-0.252c-1.52-2.832-2.712-5.816-3.656-8.84
				L170.656,150.186z M176.656,161.358l4.912,9.144l-13.044-0.824c-2.932-2.792-5.72-6.14-8.056-10.108L176.656,161.358z
				 M188.176,180.414l-34.38-64.012c5.424,2.02,19.908,8.576,27.872,23.404C189.564,154.514,188.828,173.25,188.176,180.414z
				 M184.16,138.466c-10.444-19.444-30.896-25.288-31.76-25.528l-1.532-0.424l-0.244,1.572c-0.164,1.052-3.904,26.02,6.48,45.348
				c5.82,10.832,14.736,17.436,21.652,21.208c-28.984,12.012-56.16,12.28-74.212,8.052c21.88-12.02,36.752-35.28,36.752-61.96
				c0-26.312-14.484-49.264-35.872-61.424c11.368-5.588,24.736-10.16,39.992-12.508c3.824-0.588,7.488-0.856,11.012-0.856
				c40.604,0,61.292,35.988,61.512,36.384l0.328,0.58l0.608,0.268c4.736,2.084,10.164,5.528,10.7,7.34
				c0.552,1.868-2.156,7.672-4.984,11.98l-0.364,0.556l0.044,0.664c0.02,0.316,0.904,22.38-10.012,42.108
				c-0.008,0.016-0.008,0.024-0.016,0.04c-1.348,0.632-2.688,1.328-4,2.164c-11.532,7.396-17.216,20.908-19.244,26.792
				C191.716,173.478,192.572,154.122,184.16,138.466z M216.648,167.238l-7.14,4.576l0.412-14.096c0.604-0.452,1.22-0.892,1.86-1.304
				c1.552-0.996,3.16-1.796,4.78-2.48L216.648,167.238z M208.76,158.646l-0.408,13.912l-5.904,3.784l-0.072-11.016
				C204.2,162.938,206.324,160.646,208.76,158.646z M201.252,166.842l0.068,10.224l-7.72,4.948
				C194.72,178.762,197.14,172.682,201.252,166.842z M223.324,178.246c-10.908,6.988-24.212,5.688-29.308,4.844l23.648-15.164h0.116
				v-0.072l23.72-15.208C239.644,158.058,234.172,171.294,223.324,178.246z"/>
			<path d="M164.52,76.042c-2.572,0-2.576,4,0,4C167.092,80.042,167.1,76.042,164.52,76.042z"/>
			<path d="M183.836,93.57c-2.576,0-2.58,4,0,4C186.408,97.57,186.416,93.57,183.836,93.57z"/>
			<path d="M190.272,75.686c-2.572,0-2.58,4,0,4C192.844,79.686,192.852,75.686,190.272,75.686z"/>
			<path d="M148.8,59.818c-0.12,0.12-0.24,0.24-0.356,0.356c-1.824,1.824,1.004,4.652,2.828,2.828c0.12-0.12,0.24-0.24,0.356-0.356
				C153.452,60.826,150.624,57.998,148.8,59.818z"/>
		</g>
	</g>
</g>
</svg>