<?xml version="1.0" encoding="iso-8859-1"?>
<!-- Uploaded to: SVG Repo, www.svgrepo.com, Generator: SVG Repo Mixer Tools -->
<svg fill="#000000" height="800px" width="800px" version="1.1" id="Layer_1" xmlns="http://www.w3.org/2000/svg" xmlns:xlink="http://www.w3.org/1999/xlink" 
	 viewBox="0 0 253.324 253.324" xml:space="preserve">
<g>
	<g>
		<g>
			<path d="M226.609,178.367c2.07-4.957,4.01-9.293,5.135-11.357c2.291-4.2,2.204-18.062,0.702-27.955
				c2.06-3.832,2.659-9.395,3.226-14.809c0.516-4.948,1.052-10.064,2.688-13.5c3.56-7.476,7.824-11.456,7.868-11.496l7.096-6.548
				l-8.42,4.724c-0.781,0.439-17.288,9.812-23.503,21.459c-3.571-6.297-6.853-14.09-6.389-15.951
				c0.392-1.067,0.912-4.335,1.343-8.431c2.702-4.279,5.365-9.318,5.885-13.221c0.608-4.576-1.608-10.372-3.744-15.976
				c-1.776-4.648-3.612-9.448-3.704-13.256c-0.2-8.276,1.804-13.752,1.824-13.808l3.364-9.032l-5.368,8.004
				c-0.502,0.74-10.931,16.475-11.27,29.653c-1.736-0.337-3.301-0.912-4.326-2.009c-1.482-1.582-3.032-3.052-4.455-4.33
				c0.472-1.418,0.796-2.788,0.839-3.978c0.108-3.136-1.728-6.832-3.504-10.412c-1.448-2.908-2.94-5.908-3.232-8.332
				c-0.644-5.324,0.3-8.98,0.308-9.016l2.46-9.28l-4.556,8.452c-0.316,0.588-7.74,14.524-4.988,23.54
				c0.636,2.081,1.303,4.031,1.942,5.872c-2.247,1.037-5.285,2.548-8.23,4.368c-1.276,0.789-2.937,0.917-4.695,0.786
				c3.106-12.805-2.845-30.7-3.133-31.546l-3.092-9.144l0.892,9.612c0.004,0.06,0.508,5.868-1.848,13.804
				c-1.088,3.652-4.116,7.808-7.04,11.828c-3.528,4.848-7.18,9.86-7.788,14.44c-0.52,3.898,0.729,9.449,2.217,14.283
				c-0.652,4.064-1.012,7.359-0.913,8.485c-0.068,3.172-14.028,19.112-18.592,20.116c-1.552,0.34-3.04,1.72-4.68,4.332
				c-1.353,2.161-2.796,5.22-4.152,8.623c-0.1-0.675-0.227-1.319-0.404-1.899c-1.16-3.796-4.98-7.556-8.68-11.188
				c-3.084-3.028-6.268-6.164-7.724-9.152c-3.16-6.48-3.56-11.54-3.564-11.588l-0.524-7.232l-1.164,7.156
				c-0.14,0.86-3.34,21.14,3.808,30.964c0.221,0.305,0.439,0.592,0.659,0.889c-6.47-0.744-15.39-3.039-16.703-4.467
				c-0.217-4.533-1.013-14.314-3.928-18.994c-2.096-3.372-6.756-6.02-11.26-8.584c-3.756-2.136-7.644-4.348-9.816-6.86
				c-4.716-5.448-6.404-10.24-6.416-10.288l-2.364-6.84l0.712,7.204c0.08,0.777,1.811,17.326,8.996,26.236
				c-1.629,0.647-2.931,2.182-4.4,3.764c-1.872,2.02-4,4.308-6.264,4.488c-2.42,0.196-4.797,0.567-6.74,0.93
				c-2.265-3.284-5.253-6.621-8.696-7.982c-1.936-0.764-3.796-1.42-5.536-2.032c-4.752-1.676-8.508-3-10.424-5.332L19.46,93.05
				l1.416,4.312c0.128,0.392,3.204,9.648,6.84,12.768c2.044,1.748,5.528,2.496,8.9,3.22c1.505,0.323,3.034,0.656,4.414,1.071
				c-0.289,0.981-1.68,5.866-2.29,10.981c-0.272,2.256-2.644,4.292-4.732,6.084c-1.377,1.18-2.704,2.32-3.516,3.591
				c-8.845-6.222-22.562-8.455-23.264-8.567L0,125.37l6.772,2.768c0.048,0.02,4.712,1.96,9.896,7
				c2.388,2.32,4.368,6.328,6.284,10.204c2.296,4.644,4.672,9.448,7.912,11.74c4.036,2.847,12.24,4.234,17.154,4.838
				c1.632,4.05,3.465,14.545,3.123,19.529c-8.006-8.697-26.501-11.412-27.317-11.526l-7.244-1.024l6.808,2.66
				c0.048,0.016,4.74,1.884,10.004,6.844c2.416,2.28,4.46,6.252,6.436,10.1c2.372,4.608,4.82,9.376,8.096,11.612
				c2.671,1.824,7.124,2.99,11.265,3.728c3.359,4.8,6.942,8.913,9.267,10c2.173,1.018,6.751,3.658,11.57,6.606
				c-6.994,0.807-13.916,4.033-14.326,4.226l-6.54,3.096l7.08-1.496c0.04-0.008,3.612-0.748,8.756,0.152
				c2.352,0.412,5.176,2,7.908,3.54c3.316,1.868,6.752,3.804,9.704,3.848c0.04,0,0.084,0,0.12,0c2.165,0,4.955-0.888,7.542-1.953
				c3.323-0.087,7.215-1.401,11.038-2.708c3.392-1.152,6.82-2.404,9.152-2.304c6.788,0.1,16.88-2.76,23.328-6.584l0.408-0.24
				l0.252-0.396c1.224-1.892,2.374-4.132,3.391-6.516c5.052,4.505,11.799,8.826,17.601,11.033l0.44,0.168l0.468-0.048
				c8.56-0.848,19.988-5.132,26.024-9.752c2.104-1.608,6.208-2.904,10.172-4.16c5.919-1.867,11.942-3.819,14.585-7.499
				c2.569-0.75,5.02-1.72,6.643-2.953c2.74-2.084,4.62-6.244,6.436-10.268c1.484-3.28,3.016-6.672,4.9-8.64
				c4.136-4.308,7.952-6.072,7.992-6.088l8.748-3.976l-9.428,1.828C241.92,172.855,233.608,174.509,226.609,178.367z
				 M240.052,103.23c-1.204,1.772-2.508,3.952-3.74,6.536c-1.808,3.792-2.36,9.104-2.9,14.24c-0.592,5.684-1.208,11.56-3.492,14.896
				c-2.932,4.272-10.904,8.86-15.82,11.408c2.32-4.224,3.652-9.872,5.232-16.564c0.748-3.172,1.524-6.452,2.484-9.936
				C224.1,115.534,233.652,107.698,240.052,103.23z M212.904,44.574c-0.272,2.124-0.452,4.66-0.384,7.528
				c0.1,4.196,2.008,9.184,3.848,14.008c2.036,5.34,4.148,10.86,3.612,14.868c-0.684,5.136-5.724,12.832-8.956,17.324
				c0.16-4.812-1.204-10.452-2.816-17.136c-0.764-3.172-1.556-6.448-2.272-9.988C204.228,62.762,209.212,51.45,212.904,44.574z
				 M186.18,35.086c0.032,0.928,0.104,1.932,0.232,2.992c0.34,2.812,1.92,5.992,3.448,9.068c1.652,3.324,3.356,6.764,3.268,9.324
				c-0.108,2.98-2.352,7.536-4.12,10.692c-0.396-2.908-1.524-6.168-2.832-9.936c-0.688-1.988-1.424-4.112-2.116-6.384
				C182.64,46.194,184.404,39.758,186.18,35.086z M151.144,71.822c0.532-4.008,4.012-8.788,7.376-13.408
				c3.036-4.176,6.18-8.492,7.376-12.516c0.816-2.748,1.308-5.244,1.596-7.364c1.764,7.6,3.62,19.824-0.228,27.5
				c-1.612,3.224-3.232,6.176-4.8,9.032c-3.308,6.04-6.104,11.128-7.208,15.82C153.316,85.706,150.46,76.958,151.144,71.822z
				 M105.904,123.422c-4.568-6.272-4.568-17.592-4.084-24.3c0.556,1.912,1.388,4.22,2.616,6.748c1.584,3.248,4.88,6.488,8.064,9.616
				c3.548,3.488,7.212,7.088,8.248,10.476c0.166,0.541,0.285,1.146,0.373,1.791c-1.454-0.797-2.812-1.457-3.997-1.927
				c-2.56-1.024-4.384-1.216-5.708-0.628h-0.004c-0.753,0.335-2.176,0.415-3.96,0.314
				C106.939,124.833,106.423,124.139,105.904,123.422z M62.192,87.518c2.368,2.736,6.384,5.016,10.264,7.228
				c4.32,2.456,8.788,5,10.656,8.004c2.268,3.647,3.168,11.011,3.523,15.853c-4.594-5.047-16.01-15.668-20.164-16.176
				c-4.891-5.386-7.408-14.8-8.54-20.757C58.96,83.374,60.352,85.394,62.192,87.518z M28.832,108.834
				c-2.072-1.772-4.036-6.052-5.216-8.992c2.224,1.404,5.16,2.436,8.588,3.648c1.724,0.604,3.564,1.252,5.476,2.012
				c2.859,1.129,5.432,3.898,7.484,6.764c-1.557,0.329-2.576,0.591-2.672,0.616l-0.364,0.095c-1.602-0.529-3.392-0.917-5.148-1.295
				C33.816,111.002,30.544,110.302,28.832,108.834z M24.476,144.586c-1.98-4.004-4.028-8.148-6.62-10.668
				c-2.016-1.96-3.948-3.468-5.588-4.592c4.94,1.241,12.276,3.59,17.523,7.388c-0.059,0.265-0.097,0.536-0.103,0.816
				c-0.087,4.412,13.269,19.383,16.945,22.479c-4.789-0.673-11.476-1.984-14.785-4.323C28.956,153.646,26.68,149.038,24.476,144.586
				z M48.892,198.71c-2.92-1.996-5.272-6.564-7.548-10.988c-2.04-3.972-4.152-8.08-6.784-10.56c-2.048-1.928-4-3.408-5.66-4.504
				c6.471,1.515,17.107,4.834,21.814,10.923c-0.001,0.001-0.001,0.003-0.002,0.005c-0.64,1.308-0.512,3.128,0.404,5.724
				c1.177,3.347,3.772,8.087,6.71,12.529C54.392,201.139,50.985,200.141,48.892,198.71z M92.632,232.118
				c-2.52-0.04-5.756-1.868-8.892-3.632c-2.86-1.608-5.812-3.272-8.452-3.736c-1.488-0.26-2.856-0.392-4.056-0.444
				c3.152-1.09,7.379-2.231,11.287-2.318c5.169,3.221,10.192,6.539,12.437,8.354c0.546,0.442,1.147,0.772,1.79,1.014
				c-1.457,0.458-2.855,0.762-4.01,0.762H92.632z M141.348,217.066c-5.708,3.256-14.66,5.796-20.436,5.796
				c-0.12,0-0.248-0.004-0.368-0.004c-2.936,0.012-6.628,1.192-10.52,2.516c-4.648,1.584-10.452,3.56-12.548,1.856
				c-4.976-4.028-22.176-14.6-27.32-17.012c-4.284-2.004-16.708-21.572-15.844-24.868c2.252-4.604-0.684-25.432-4.868-28.212
				c-3.108-2.064-15.368-16.904-15.752-19.528c0.024-0.592,1.84-2.152,2.924-3.084c2.508-2.156,5.64-4.844,6.092-8.644
				c0.46-3.808,1.408-7.592,1.896-9.392c1.82-0.42,5.636-1.22,9.464-1.532c3.816-0.308,6.624-3.328,8.876-5.752
				c0.972-1.052,2.604-2.804,3.12-2.812c2.692,0.488,17.04,13.32,18.976,16.504c2.604,4.28,23.188,8.016,27.96,5.98
				c3.432-0.672,22.44,12.436,24.272,16.788c2.208,5.24,12.108,22.836,15.936,27.96c1.612,2.16-0.584,7.876-2.348,12.468
				c-1.472,3.836-2.86,7.46-2.92,10.412C147.828,202.262,144.896,211.37,141.348,217.066z M157.398,173.235
				c-0.218-0.719-0.532-1.396-0.99-2.009c-1.697-2.273-4.744-7.293-7.716-12.494c0.182-4.022,1.548-8.401,2.8-11.618
				c0.004,1.2,0.084,2.568,0.284,4.068c0.356,2.656,1.904,5.668,3.4,8.584c1.644,3.2,3.34,6.508,3.28,9.032
				C158.427,170.073,157.999,171.631,157.398,173.235z M201.344,206.546c-4.492,1.42-8.74,2.76-11.4,4.796
				c-5.328,4.076-15.772,8.012-23.524,8.896c-5.663-2.25-12.418-6.728-17.05-11.123c1.517-4.431,2.497-8.985,2.566-12.537
				c0.044-2.248,1.372-5.708,2.656-9.052c1.403-3.655,2.825-7.38,3.108-10.626c1.278-2.72,2.41-5.754,2.464-8.062
				c0.068-2.952-1.732-6.46-3.468-9.848c-1.428-2.788-2.912-5.672-3.228-8.036c-0.7-5.16,0.18-8.72,0.188-8.756l1.768-7.012
				l-3.348,6.412c-0.213,0.408-3.837,7.452-4.846,14.549c-2.808-5.011-5.328-9.796-6.274-12.042
				c-1.376-3.268-8.44-9.168-15.171-13.544c2.343-6.28,5.014-11.656,6.683-12.252c5.399-1.188,21.411-18.031,21.716-23.93
				c0.372,0.915,0.625,1.498,0.676,1.614l2.428,5.544l-0.256-6.048c-0.228-5.384,3.148-11.54,7.42-19.332
				c1.58-2.872,3.208-5.848,4.844-9.108c0.099-0.199,0.186-0.407,0.278-0.61c2.763,0.317,5.66,0.231,8.126-1.294
				c2.612-1.615,5.328-2.978,7.431-3.958c1.315,3.978,2.15,7.265,1.578,9.934l-1.264,5.92l3.328-5.064
				c0.153-0.235,2.351-3.616,4.177-7.49c1.044,0.969,2.114,1.999,3.147,3.102c1.983,2.123,4.755,2.961,7.506,3.374
				c0.036,0.222,0.065,0.447,0.11,0.666c0.724,3.58,1.524,6.88,2.292,10.068c2.088,8.632,3.736,15.456,2.108,20.588l-1.828,5.772
				l3.8-4.716c0.079-0.098,0.476-0.594,1.074-1.379c-0.84,3.842,3.782,14.183,8.423,21.433c-0.947,3.448-1.715,6.692-2.453,9.83
				c-2.036,8.648-3.648,15.476-7.42,19.32l-4.244,4.324l5.516-2.496c0.557-0.251,11.77-5.366,18.022-11.091
				c0.887,8.58,0.845,18.857-0.766,21.811c-1.657,3.035-4.877,10.473-7.822,17.87c-0.596,0.627-1.139,1.284-1.602,1.978
				c-1.48,2.212-2.8,4.356-4.036,6.364c-3.376,5.484-6.04,9.812-9.46,11.572l-5.392,2.768l6.024-0.632
				c0.013-0.001,0.04-0.004,0.068-0.007C204.489,205.549,202.893,206.058,201.344,206.546z M233.476,179.422
				c-2.152,2.248-3.764,5.82-5.328,9.276c-1.7,3.768-3.46,7.66-5.748,9.4c-2.728,2.076-8.492,3.368-12.476,4.052
				c2.316-2.396,4.376-5.748,6.784-9.656c1.22-1.984,2.524-4.104,3.984-6.292c3.124-4.672,10.304-7.744,15.656-9.468
				C235.436,177.498,234.468,178.394,233.476,179.422z"/>
			<path d="M184.284,136.414l0.328-6.04c0.188-3.432,2.76-7.212,6.016-11.992c1.2-1.76,2.484-3.644,3.764-5.684
				c5.012-7.984,1.496-23.376,1.344-24.028l-2.188-9.344l-0.052,9.6c0,0.036-0.048,3.812-2.064,8.784
				c-0.916,2.264-3.14,4.772-5.292,7.196c-2.652,2.988-5.388,6.08-6.104,9.136c-1.26,5.424,2.216,16.168,2.364,16.62
				L184.284,136.414z M182.248,114.554c0.58-2.496,3.128-5.372,5.588-8.148c2.284-2.568,4.636-5.224,5.7-7.848
				c0.404-0.996,0.736-1.944,1.004-2.832c0.496,4.98,0.516,11.652-2.068,15.764c-1.268,2.016-2.532,3.876-3.72,5.616
				c-2.244,3.296-4.184,6.144-5.328,8.848C182.54,122.442,181.568,117.462,182.248,114.554z"/>
			<path d="M191.44,169.678c-1.472,1.944-4.272,3.788-6.98,5.568c-3.34,2.196-6.792,4.468-8.276,7.236
				c-2.624,4.912-2.064,16.188-2.04,16.668l0.32,6.052l1.892-5.764c1.068-3.268,4.54-6.248,8.936-10.02
				c1.612-1.388,3.34-2.868,5.1-4.5c6.924-6.404,7.524-22.184,7.548-22.852l0.32-9.604l-2.548,9.268
				C195.7,161.766,194.68,165.402,191.44,169.678z M188.852,183.258c-1.744,1.612-3.448,3.076-5.04,4.444
				c-3.032,2.604-5.648,4.852-7.456,7.168c0.06-3.616,0.412-8.68,1.824-11.312c1.212-2.26,4.42-4.372,7.524-6.412
				c2.868-1.888,5.832-3.84,7.54-6.092c0.648-0.86,1.216-1.688,1.708-2.476C194.136,173.51,192.42,179.958,188.852,183.258z"/>
			<path d="M126.312,152.726c-11.32-11.776-27.708-16.532-36.464-18.32c-12.38-2.528-23.788-2.048-27.108,1.144
				c-3.32,3.188-4.248,14.564-2.2,27.044c1.448,8.82,5.564,25.38,16.888,37.152c9.064,9.424,19.028,14.856,28.824,15.716
				c0.936,0.084,1.872,0.124,2.8,0.124c8.096,0,15.604-3.136,21.86-9.152c6.976-6.708,10.428-15.108,9.984-24.292
				C140.416,172.318,135.376,162.146,126.312,152.726z M129.344,204.798c-6.488,6.24-14.376,9.148-22.896,8.404
				c-9.24-0.808-18.708-6.004-27.388-15.024c-10.892-11.332-14.876-27.384-16.28-35.948c-2.088-12.744-0.864-22.74,1.532-25.044
				c1.36-1.312,5.204-2.148,10.596-2.148c4.08,0,9.04,0.48,14.492,1.588c8.5,1.736,24.384,6.336,35.284,17.668
				c8.676,9.024,13.5,18.688,13.948,27.952C139.044,190.758,135.832,198.554,129.344,204.798z"/>
			<path d="M106.54,150.71c-0.056-0.012-0.112-0.016-0.172-0.016c-1.14,0-3.468,1.288-3.468,1.288s2.076,2.1,3.132,2.252
				c0.084,0.012,0.172,0.02,0.26,0.02c0.984,0,2.008-0.756,2.112-1.476C108.516,151.994,107.6,150.862,106.54,150.71z
				 M106.208,153.114c-0.004,0-0.008,0-0.012,0c-0.224-0.044-0.728-0.384-1.296-0.844c0.612-0.256,1.176-0.44,1.464-0.44l0.012,0
				c0.472,0.068,0.884,0.62,0.908,0.756C107.224,152.738,106.772,153.114,106.208,153.114z"/>
			<path d="M113.572,203.294c-0.4,0-0.808,0.092-1.144,0.3c-0.912,0.56-1.976,3.312-1.976,3.312s0.74,0.072,1.592,0.072
				c0.848,0,1.804-0.072,2.256-0.348c0.912-0.56,1.3-1.964,0.884-2.64C114.92,203.566,114.256,203.294,113.572,203.294z
				 M113.708,205.662c0,0-0.332,0.172-1.532,0.184c0.336-0.644,0.66-1.156,0.848-1.284c0.132-0.084,0.332-0.132,0.548-0.132
				c0.368,0,0.608,0.128,0.632,0.128C114.268,204.742,114.108,205.414,113.708,205.662z"/>
			<path d="M106.3,166.402c-0.204-0.092-0.496-0.124-0.828-0.124c-1.236,0-3.008,0.472-3.008,0.472s1.5,2.54,2.488,2.948
				c0.24,0.1,0.504,0.144,0.768,0.144c0.824,0,1.66-0.428,1.884-0.98C107.904,168.13,107.292,166.806,106.3,166.402z
				 M105.724,168.702c-0.128,0-0.248-0.02-0.336-0.056c-0.208-0.1-0.616-0.548-1.048-1.132c0.396-0.06,0.8-0.104,1.132-0.104
				c0.292,0,0.404,0.036,0.404,0.036c0.44,0.18,0.708,0.816,0.696,0.952C106.5,168.502,106.136,168.702,105.724,168.702z"/>
			<path d="M95.336,176.858c-0.212-0.584-1.084-1.056-1.932-1.056c-0.236,0-0.468,0.036-0.684,0.116
				c-1.004,0.368-2.604,2.848-2.604,2.848s1.92,0.592,3.156,0.592c0.26,0,0.492-0.028,0.668-0.092
				C94.944,178.898,95.608,177.602,95.336,176.858z M93.56,178.202c0,0-0.08,0.024-0.284,0.024c-0.356,0-0.808-0.064-1.256-0.152
				c0.456-0.564,0.88-0.996,1.088-1.088c0.08-0.032,0.184-0.048,0.296-0.048c0.432,0,0.812,0.224,0.864,0.28
				C94.292,177.414,94,178.038,93.56,178.202z"/>
			<path d="M71.532,161.726c-0.14-0.04-0.3-0.06-0.48-0.06c-1.22,0-3.312,0.784-3.312,0.784s1.74,2.384,2.768,2.688
				c0.18,0.052,0.368,0.08,0.556,0.08c0.892,0,1.816-0.548,2.004-1.172C73.296,163.29,72.556,162.03,71.532,161.726z
				 M71.064,164.082c-0.084,0-0.164-0.012-0.228-0.028c-0.216-0.08-0.664-0.484-1.156-1.024c0.516-0.132,1.024-0.228,1.372-0.228
				l0.152,0.008c0.456,0.136,0.784,0.744,0.788,0.88C71.916,163.826,71.496,164.082,71.064,164.082z"/>
			<path d="M116.36,171.742c-0.388-0.304-0.904-0.44-1.392-0.44c-0.58,0-1.128,0.192-1.392,0.532
				c-0.484,0.624-0.252,2.064,0.592,2.72s3.796,0.696,3.796,0.696S117.204,172.398,116.36,171.742z M114.868,173.654
				c-0.376-0.292-0.46-0.976-0.416-1.104c0.04-0.036,0.232-0.116,0.516-0.116c0.276,0,0.536,0.076,0.692,0.196
				c0.172,0.152,0.444,0.692,0.708,1.372C115.648,173.914,115.056,173.786,114.868,173.654z"/>
			<path d="M81.632,146.25c0.844,0.656,3.796,0.696,3.796,0.696s-0.76-2.852-1.604-3.508c-0.388-0.304-0.904-0.44-1.392-0.44
				c-0.58,0-1.128,0.192-1.392,0.532C80.556,144.154,80.788,145.594,81.632,146.25z M81.916,144.25c0.04-0.04,0.232-0.12,0.516-0.12
				c0.276,0,0.536,0.076,0.692,0.196c0.172,0.152,0.444,0.692,0.708,1.372c-0.724-0.088-1.312-0.216-1.5-0.344
				C81.956,145.062,81.872,144.378,81.916,144.25z"/>
			<path d="M129.896,189.766c0.236,0.092,0.488,0.136,0.748,0.136c0.832,0,1.676-0.44,1.9-1c0.292-0.736-0.336-2.052-1.328-2.448
				c-0.2-0.08-0.472-0.112-0.784-0.112c-1.236,0-3.056,0.504-3.056,0.504S128.904,189.37,129.896,189.766z M130.432,187.478
				c0.264,0,0.364,0.032,0.364,0.032c0.44,0.176,0.716,0.808,0.708,0.948c-0.072,0.108-0.444,0.312-0.86,0.312
				c-0.124,0-0.236-0.02-0.324-0.052c-0.208-0.096-0.62-0.54-1.06-1.12C129.672,187.526,130.092,187.478,130.432,187.478z"/>
			<path d="M95.996,190.066c-0.072-0.016-0.144-0.024-0.22-0.024c-0.764,0-1.776,0.772-1.988,1.72
				c-0.232,1.044,0.992,3.728,0.992,3.728s2.252-1.904,2.488-2.948C97.5,191.498,96.768,190.238,95.996,190.066z M96.16,192.29
				c-0.064,0.22-0.436,0.696-0.94,1.224c-0.228-0.692-0.364-1.28-0.328-1.504c0.1-0.44,0.632-0.796,0.852-0.832
				C95.928,191.306,96.256,191.85,96.16,192.29z"/>
			<path d="M80.16,166.37c-0.072-0.016-0.144-0.024-0.22-0.024c-0.764,0-1.776,0.772-1.988,1.72
				c-0.232,1.044,0.992,3.728,0.992,3.728s2.252-1.908,2.488-2.948C81.664,167.802,80.932,166.542,80.16,166.37z M80.324,168.594
				c-0.064,0.22-0.436,0.696-0.94,1.224c-0.228-0.688-0.364-1.28-0.328-1.504c0.1-0.44,0.632-0.796,0.852-0.832
				C80.092,167.61,80.42,168.154,80.324,168.594z"/>
			<path d="M97.356,144.714c-0.072-0.016-0.144-0.024-0.22-0.024c-0.764,0-1.776,0.772-1.988,1.72
				c-0.232,1.044,0.992,3.728,0.992,3.728s2.252-1.904,2.488-2.948C98.86,146.146,98.128,144.886,97.356,144.714z M97.52,146.938
				c-0.064,0.22-0.436,0.696-0.94,1.224c-0.228-0.692-0.364-1.28-0.328-1.504c0.1-0.44,0.632-0.796,0.852-0.832
				C97.288,145.95,97.616,146.498,97.52,146.938z"/>
			<path d="M76.848,182.314c0.24,0.22,0.624,0.332,1.048,0.332c0.604,0,1.284-0.228,1.712-0.688c0.728-0.784,1.02-3.72,1.02-3.72
				s-2.908,0.512-3.632,1.296C76.268,180.318,76.268,181.778,76.848,182.314z M77.82,180.31c0.168-0.16,0.732-0.384,1.432-0.588
				c-0.148,0.712-0.328,1.288-0.476,1.464c-0.18,0.192-0.54,0.328-0.88,0.328c-0.124,0-0.216-0.02-0.248-0.02
				c-0.012,0-0.016,0.004-0.012,0.008C77.528,181.334,77.504,180.65,77.82,180.31z"/>
			<path d="M84.424,154.898c0,0-2.904,0.512-3.632,1.296c-0.728,0.784-0.728,2.24-0.148,2.78c0.24,0.22,0.624,0.332,1.048,0.332
				c0.604,0,1.284-0.228,1.712-0.688C84.132,157.834,84.424,154.898,84.424,154.898z M82.576,157.846
				c-0.18,0.192-0.54,0.328-0.88,0.328c-0.128,0-0.216-0.02-0.248-0.02c-0.012,0-0.016,0.004-0.012,0.008
				c-0.108-0.168-0.132-0.852,0.184-1.192c0.164-0.16,0.728-0.384,1.428-0.588C82.9,157.094,82.72,157.67,82.576,157.846z"/>
			<path d="M71.132,149.842c0.24,0.22,0.624,0.332,1.048,0.332c0.604,0,1.284-0.228,1.712-0.688c0.728-0.784,1.02-3.72,1.02-3.72
				s-2.908,0.512-3.632,1.296C70.552,147.846,70.552,149.302,71.132,149.842z M72.104,147.838c0.168-0.16,0.732-0.384,1.432-0.588
				c-0.148,0.712-0.328,1.288-0.476,1.464c-0.18,0.192-0.54,0.328-0.88,0.328c-0.128,0-0.216-0.02-0.248-0.02
				c-0.012,0-0.016,0.004-0.012,0.008C71.812,148.862,71.788,148.178,72.104,147.838z"/>
			<path d="M114.684,159.694c0.604,0,1.284-0.228,1.712-0.688c0.728-0.784,1.02-3.72,1.02-3.72s-2.908,0.512-3.632,1.296
				c-0.728,0.784-0.728,2.24-0.148,2.78C113.876,159.582,114.26,159.694,114.684,159.694z M114.608,157.358
				c0.168-0.16,0.732-0.384,1.432-0.588c-0.148,0.712-0.328,1.288-0.476,1.464c-0.18,0.192-0.54,0.328-0.88,0.328
				c-0.128,0-0.216-0.02-0.248-0.02c-0.012,0-0.016,0.004-0.012,0.008C114.316,158.382,114.292,157.698,114.608,157.358z"/>
			<path d="M122.884,201.286c0.24,0.22,0.624,0.332,1.048,0.332c0.604,0,1.284-0.228,1.712-0.688c0.728-0.784,1.02-3.72,1.02-3.72
				s-2.908,0.512-3.632,1.296C122.304,199.29,122.304,200.746,122.884,201.286z M123.86,199.286
				c0.164-0.164,0.728-0.384,1.428-0.588c-0.148,0.712-0.328,1.288-0.472,1.464c-0.18,0.192-0.54,0.328-0.88,0.328
				c-0.128,0-0.216-0.02-0.248-0.02c-0.012,0-0.016,0.004-0.012,0.008C123.568,200.31,123.544,199.626,123.86,199.286z"/>
			<path d="M101.72,186.966c0.24,0.22,0.624,0.332,1.048,0.332c0.604,0,1.284-0.228,1.712-0.688c0.728-0.784,1.02-3.72,1.02-3.72
				s-2.908,0.512-3.632,1.296S101.14,186.426,101.72,186.966z M102.692,184.966c0.168-0.164,0.732-0.384,1.428-0.588
				c-0.148,0.712-0.328,1.288-0.472,1.464c-0.18,0.192-0.54,0.328-0.88,0.328c-0.128,0-0.216-0.02-0.248-0.02
				c-0.012,0-0.016,0.004-0.012,0.008C102.4,185.99,102.376,185.306,102.692,184.966z"/>
			<path d="M83.36,190.174c-0.168,0-0.324,0.028-0.46,0.088c-0.724,0.316-1.204,1.696-0.776,2.672c0.428,0.98,3.004,2.42,3.004,2.42
				s0.688-2.868,0.26-3.848C85.044,190.71,84.092,190.174,83.36,190.174z M84.32,193.502c-0.592-0.42-1.052-0.816-1.152-1.02
				c-0.192-0.436,0.06-1.08,0.16-1.172h0.032c0.32,0,0.84,0.3,0.992,0.648C84.432,192.174,84.412,192.778,84.32,193.502z"/>
			<path d="M116.108,187.202c-0.076-0.016-0.148-0.024-0.22-0.024c-0.764,0-1.776,0.772-1.988,1.72
				c-0.232,1.044,0.992,3.728,0.992,3.728s2.252-1.904,2.488-2.948C117.612,188.634,116.88,187.374,116.108,187.202z
				 M116.268,189.426c-0.064,0.22-0.436,0.696-0.94,1.224c-0.228-0.692-0.364-1.28-0.328-1.504c0.1-0.44,0.632-0.796,0.852-0.832
				C116.036,188.438,116.364,188.986,116.268,189.426z"/>
			<path d="M131.304,174.042c0.232-1.044-0.5-2.304-1.272-2.476c-0.072-0.016-0.144-0.024-0.22-0.024
				c-0.764,0-1.776,0.772-1.988,1.72c-0.232,1.044,0.992,3.728,0.992,3.728S131.068,175.086,131.304,174.042z M129.78,172.678
				c0.184,0.128,0.512,0.676,0.416,1.112c-0.064,0.22-0.436,0.696-0.94,1.224c-0.228-0.688-0.364-1.28-0.328-1.504
				C129.028,173.07,129.56,172.714,129.78,172.678z"/>
			<path d="M122.716,163.354c-0.764,0-1.776,0.772-1.988,1.72c-0.232,1.044,0.992,3.728,0.992,3.728s2.252-1.904,2.488-2.948
				c0.232-1.044-0.5-2.304-1.272-2.476C122.864,163.362,122.792,163.354,122.716,163.354z M123.1,165.598
				c-0.064,0.22-0.436,0.7-0.94,1.224c-0.228-0.688-0.364-1.28-0.328-1.504c0.1-0.436,0.632-0.792,0.852-0.828
				C122.868,164.618,123.196,165.162,123.1,165.598z"/>
			<path d="M94.596,162.662c0.232-1.044-0.5-2.304-1.272-2.476c-0.072-0.02-0.144-0.024-0.22-0.024c-0.764,0-1.776,0.772-1.988,1.72
				c-0.232,1.044,0.992,3.728,0.992,3.728S94.36,163.706,94.596,162.662z M93.072,161.298c0.184,0.128,0.512,0.672,0.416,1.112
				c-0.064,0.22-0.436,0.696-0.94,1.224c-0.228-0.692-0.364-1.28-0.328-1.504C92.32,161.686,92.848,161.33,93.072,161.298z"/>
			<path d="M102.264,199.534c-0.072-0.016-0.144-0.024-0.22-0.024c-0.764,0-1.776,0.772-1.988,1.72
				c-0.232,1.044,0.992,3.728,0.992,3.728s2.252-1.904,2.488-2.948C103.768,200.966,103.036,199.706,102.264,199.534z
				 M102.428,201.758c-0.064,0.22-0.436,0.696-0.94,1.224c-0.228-0.692-0.364-1.28-0.328-1.504c0.1-0.44,0.632-0.796,0.852-0.832
				C102.196,200.77,102.524,201.318,102.428,201.758z"/>
			<path d="M90.396,137.75c-11.268-2.376-21.564-2.06-24.492,0.752c-5.652,5.44-3.712,40.116,13.932,58.46
				c9.296,9.664,19.556,14.604,29.14,14.604c7.048,0,13.732-2.676,19.396-8.12c13.344-12.836,11.54-31.972-4.592-48.748
				C113.384,143.894,98.404,139.442,90.396,137.75z M127.58,202.634c-12.84,12.36-31.268,9.828-46.924-6.456
				c-17.688-18.392-18.564-52.436-13.964-56.86c1.276-1.232,4.824-2.012,9.792-2.012c3.84,0,8.528,0.468,13.676,1.556
				c7.88,1.664,22.616,6.04,32.796,16.624C138.616,171.77,140.432,190.274,127.58,202.634z"/>
		</g>
	</g>
</g>
</svg>